<svg xmlns="http://www.w3.org/2000/svg" version="1.1" xmlns:xlink="http://www.w3.org/1999/xlink" xmlns:svgjs="http://svgjs.dev/svgjs" width="1440" height="720" preserveAspectRatio="none" viewBox="0 0 1440 720"><g mask="url(&quot;#SvgjsMask1100&quot;)" fill="none"><rect width="1440" height="720" x="0" y="0" fill="url(&quot;#SvgjsLinearGradient1101&quot;)"></rect><g mask="url(&quot;#SvgjsMask1102&quot;)"><path d="M130 610L130 550L10 430L10 230" stroke-width="3.33" stroke="#3a7cc3"></path><path d="M125 610 a5 5 0 1 0 10 0 a5 5 0 1 0 -10 0zM5 230 a5 5 0 1 0 10 0 a5 5 0 1 0 -10 0z" fill="#3a7cc3"></path><path d="M30 570L30 470L10 450" stroke-width="3.33" stroke="#3a7cc3"></path><path d="M25 570 a5 5 0 1 0 10 0 a5 5 0 1 0 -10 0zM5 450 a5 5 0 1 0 10 0 a5 5 0 1 0 -10 0z" fill="#3a7cc3"></path><path d="M1290 170L1150 170L1130 190L1110 190L1090 170L1090 30L1070 10L1050 10" stroke-width="3.33" stroke="#3a7cc3"></path><path d="M1285 170 a5 5 0 1 0 10 0 a5 5 0 1 0 -10 0zM1045 10 a5 5 0 1 0 10 0 a5 5 0 1 0 -10 0z" fill="#3a7cc3"></path><path d="M810 170L1010 370L1010 430L1070 490L1130 490" stroke-width="3.33" stroke="#3a7cc3"></path><path d="M805 170 a5 5 0 1 0 10 0 a5 5 0 1 0 -10 0zM1125 490 a5 5 0 1 0 10 0 a5 5 0 1 0 -10 0z" fill="#3a7cc3"></path><path d="M70 610L50 590L10 590" stroke-width="3.33" stroke="#3a7cc3"></path><path d="M65 610 a5 5 0 1 0 10 0 a5 5 0 1 0 -10 0zM5 590 a5 5 0 1 0 10 0 a5 5 0 1 0 -10 0z" fill="#3a7cc3"></path><path d="M170 230L150 230L70 150L70 10" stroke-width="3.33" stroke="#3a7cc3"></path><path d="M165 230 a5 5 0 1 0 10 0 a5 5 0 1 0 -10 0zM65 10 a5 5 0 1 0 10 0 a5 5 0 1 0 -10 0z" fill="#3a7cc3"></path><path d="M770 290L830 230L830 210L630 10L530 10" stroke-width="3.33" stroke="#3a7cc3"></path><path d="M765 290 a5 5 0 1 0 10 0 a5 5 0 1 0 -10 0zM525 10 a5 5 0 1 0 10 0 a5 5 0 1 0 -10 0z" fill="#3a7cc3"></path><path d="M710 290L790 210L790 190L630 30L510 30" stroke-width="3.33" stroke="#3a7cc3"></path><path d="M705 290 a5 5 0 1 0 10 0 a5 5 0 1 0 -10 0zM505 30 a5 5 0 1 0 10 0 a5 5 0 1 0 -10 0z" fill="#3a7cc3"></path><path d="M1390 90L1430 90" stroke-width="3.33" stroke="#3a7cc3"></path><path d="M1385 90 a5 5 0 1 0 10 0 a5 5 0 1 0 -10 0zM1425 90 a5 5 0 1 0 10 0 a5 5 0 1 0 -10 0z" fill="#3a7cc3"></path><path d="M30 30L30 190L250 410" stroke-width="3.33" stroke="#3a7cc3"></path><path d="M25 30 a5 5 0 1 0 10 0 a5 5 0 1 0 -10 0zM245 410 a5 5 0 1 0 10 0 a5 5 0 1 0 -10 0z" fill="#3a7cc3"></path><path d="M370 370L370 510L470 610L470 650L430 690L410 690L390 670L390 650" stroke-width="3.33" stroke="#3a7cc3"></path><path d="M365 370 a5 5 0 1 0 10 0 a5 5 0 1 0 -10 0zM385 650 a5 5 0 1 0 10 0 a5 5 0 1 0 -10 0z" fill="#3a7cc3"></path><path d="M1270 650L1250 670L1210 670L910 370L890 370" stroke-width="3.33" stroke="#3a7cc3"></path><path d="M1265 650 a5 5 0 1 0 10 0 a5 5 0 1 0 -10 0zM885 370 a5 5 0 1 0 10 0 a5 5 0 1 0 -10 0z" fill="#3a7cc3"></path><path d="M650 570L610 610L490 610L390 510L390 390" stroke-width="3.33" stroke="#3a7cc3"></path><path d="M645 570 a5 5 0 1 0 10 0 a5 5 0 1 0 -10 0zM385 390 a5 5 0 1 0 10 0 a5 5 0 1 0 -10 0z" fill="#3a7cc3"></path><path d="M130 330L130 310L10 190L10 10" stroke-width="3.33" stroke="#3a7cc3"></path><path d="M125 330 a5 5 0 1 0 10 0 a5 5 0 1 0 -10 0zM5 10 a5 5 0 1 0 10 0 a5 5 0 1 0 -10 0z" fill="#3a7cc3"></path><path d="M1250 110L1110 110" stroke-width="3.33" stroke="#3a7cc3"></path><path d="M1245 110 a5 5 0 1 0 10 0 a5 5 0 1 0 -10 0zM1105 110 a5 5 0 1 0 10 0 a5 5 0 1 0 -10 0z" fill="#3a7cc3"></path><path d="M1410 250L1370 210L1370 130L1390 110L1430 110" stroke-width="3.33" stroke="#3a7cc3"></path><path d="M1405 250 a5 5 0 1 0 10 0 a5 5 0 1 0 -10 0zM1425 110 a5 5 0 1 0 10 0 a5 5 0 1 0 -10 0z" fill="#3a7cc3"></path><path d="M770 270L810 230L810 210" stroke-width="3.33" stroke="#3a7cc3"></path><path d="M765 270 a5 5 0 1 0 10 0 a5 5 0 1 0 -10 0zM805 210 a5 5 0 1 0 10 0 a5 5 0 1 0 -10 0z" fill="#3a7cc3"></path><path d="M950 190L1090 190L1330 430" stroke-width="3.33" stroke="#3a7cc3"></path><path d="M945 190 a5 5 0 1 0 10 0 a5 5 0 1 0 -10 0zM1325 430 a5 5 0 1 0 10 0 a5 5 0 1 0 -10 0z" fill="#3a7cc3"></path><path d="M150 150L250 50L390 50L430 10L510 10" stroke-width="3.33" stroke="#3a7cc3"></path><path d="M145 150 a5 5 0 1 0 10 0 a5 5 0 1 0 -10 0zM505 10 a5 5 0 1 0 10 0 a5 5 0 1 0 -10 0z" fill="#3a7cc3"></path><path d="M650 230L730 150" stroke-width="3.33" stroke="#3a7cc3"></path><path d="M645 230 a5 5 0 1 0 10 0 a5 5 0 1 0 -10 0zM725 150 a5 5 0 1 0 10 0 a5 5 0 1 0 -10 0z" fill="#3a7cc3"></path><path d="M650 250L650 550L610 590L570 590" stroke-width="3.33" stroke="#3a7cc3"></path><path d="M645 250 a5 5 0 1 0 10 0 a5 5 0 1 0 -10 0zM565 590 a5 5 0 1 0 10 0 a5 5 0 1 0 -10 0z" fill="#3a7cc3"></path><path d="M1010 70L850 70L790 10L650 10" stroke-width="3.33" stroke="#3a7cc3"></path><path d="M1005 70 a5 5 0 1 0 10 0 a5 5 0 1 0 -10 0zM645 10 a5 5 0 1 0 10 0 a5 5 0 1 0 -10 0z" fill="#3a7cc3"></path><path d="M1010 50L1030 30L1030 10" stroke-width="3.33" stroke="#3a7cc3"></path><path d="M1005 50 a5 5 0 1 0 10 0 a5 5 0 1 0 -10 0zM1025 10 a5 5 0 1 0 10 0 a5 5 0 1 0 -10 0z" fill="#3a7cc3"></path><path d="M210 590L330 710L430 710L510 630L590 630" stroke-width="3.33" stroke="#3a7cc3"></path><path d="M205 590 a5 5 0 1 0 10 0 a5 5 0 1 0 -10 0zM585 630 a5 5 0 1 0 10 0 a5 5 0 1 0 -10 0z" fill="#3a7cc3"></path><path d="M230 710L10 710" stroke-width="3.33" stroke="#3a7cc3"></path><path d="M225 710 a5 5 0 1 0 10 0 a5 5 0 1 0 -10 0zM5 710 a5 5 0 1 0 10 0 a5 5 0 1 0 -10 0z" fill="#3a7cc3"></path><path d="M1290 110L1290 130L1270 150L1110 150" stroke-width="3.33" stroke="#3a7cc3"></path><path d="M1285 110 a5 5 0 1 0 10 0 a5 5 0 1 0 -10 0zM1105 150 a5 5 0 1 0 10 0 a5 5 0 1 0 -10 0z" fill="#3a7cc3"></path><path d="M1230 570L1250 570L1390 710L1430 710" stroke-width="3.33" stroke="#3a7cc3"></path><path d="M1225 570 a5 5 0 1 0 10 0 a5 5 0 1 0 -10 0zM1425 710 a5 5 0 1 0 10 0 a5 5 0 1 0 -10 0z" fill="#3a7cc3"></path><path d="M1010 150L1070 150" stroke-width="3.33" stroke="#3a7cc3"></path><path d="M1005 150 a5 5 0 1 0 10 0 a5 5 0 1 0 -10 0zM1065 150 a5 5 0 1 0 10 0 a5 5 0 1 0 -10 0z" fill="#3a7cc3"></path><path d="M990 250L990 330L1070 410L1290 410" stroke-width="3.33" stroke="#3a7cc3"></path><path d="M985 250 a5 5 0 1 0 10 0 a5 5 0 1 0 -10 0zM1285 410 a5 5 0 1 0 10 0 a5 5 0 1 0 -10 0z" fill="#3a7cc3"></path><path d="M950 430L910 470L670 470" stroke-width="3.33" stroke="#3a7cc3"></path><path d="M945 430 a5 5 0 1 0 10 0 a5 5 0 1 0 -10 0zM665 470 a5 5 0 1 0 10 0 a5 5 0 1 0 -10 0z" fill="#3a7cc3"></path><path d="M1390 190L1430 230L1430 450L1310 570" stroke-width="3.33" stroke="#3a7cc3"></path><path d="M1385 190 a5 5 0 1 0 10 0 a5 5 0 1 0 -10 0zM1305 570 a5 5 0 1 0 10 0 a5 5 0 1 0 -10 0z" fill="#3a7cc3"></path><path d="M890 410L930 410" stroke-width="3.33" stroke="#3a7cc3"></path><path d="M885 410 a5 5 0 1 0 10 0 a5 5 0 1 0 -10 0zM925 410 a5 5 0 1 0 10 0 a5 5 0 1 0 -10 0z" fill="#3a7cc3"></path><path d="M890 390L790 290" stroke-width="3.33" stroke="#3a7cc3"></path><path d="M885 390 a5 5 0 1 0 10 0 a5 5 0 1 0 -10 0zM785 290 a5 5 0 1 0 10 0 a5 5 0 1 0 -10 0z" fill="#3a7cc3"></path><path d="M890 190L930 190L1070 50L1070 30" stroke-width="3.33" stroke="#3a7cc3"></path><path d="M885 190 a5 5 0 1 0 10 0 a5 5 0 1 0 -10 0zM1065 30 a5 5 0 1 0 10 0 a5 5 0 1 0 -10 0z" fill="#3a7cc3"></path><path d="M90 410L50 450" stroke-width="3.33" stroke="#3a7cc3"></path><path d="M85 410 a5 5 0 1 0 10 0 a5 5 0 1 0 -10 0zM45 450 a5 5 0 1 0 10 0 a5 5 0 1 0 -10 0z" fill="#3a7cc3"></path><path d="M910 170L910 130L870 90L730 90L670 30" stroke-width="3.33" stroke="#3a7cc3"></path><path d="M905 170 a5 5 0 1 0 10 0 a5 5 0 1 0 -10 0zM665 30 a5 5 0 1 0 10 0 a5 5 0 1 0 -10 0z" fill="#3a7cc3"></path><path d="M730 190L770 190" stroke-width="3.33" stroke="#3a7cc3"></path><path d="M725 190 a5 5 0 1 0 10 0 a5 5 0 1 0 -10 0zM765 190 a5 5 0 1 0 10 0 a5 5 0 1 0 -10 0z" fill="#3a7cc3"></path><path d="M330 230L250 150L250 70" stroke-width="3.33" stroke="#3a7cc3"></path><path d="M325 230 a5 5 0 1 0 10 0 a5 5 0 1 0 -10 0zM245 70 a5 5 0 1 0 10 0 a5 5 0 1 0 -10 0z" fill="#3a7cc3"></path><path d="M1390 450L1390 410L1410 390L1410 290L1390 270L1330 270L1270 330L1250 330L1190 270" stroke-width="3.33" stroke="#3a7cc3"></path><path d="M1385 450 a5 5 0 1 0 10 0 a5 5 0 1 0 -10 0zM1185 270 a5 5 0 1 0 10 0 a5 5 0 1 0 -10 0z" fill="#3a7cc3"></path><path d="M730 250L770 210" stroke-width="3.33" stroke="#3a7cc3"></path><path d="M725 250 a5 5 0 1 0 10 0 a5 5 0 1 0 -10 0zM765 210 a5 5 0 1 0 10 0 a5 5 0 1 0 -10 0z" fill="#3a7cc3"></path><path d="M470 70L290 70L270 90L270 150L350 230L390 230" stroke-width="3.33" stroke="#3a7cc3"></path><path d="M465 70 a5 5 0 1 0 10 0 a5 5 0 1 0 -10 0zM385 230 a5 5 0 1 0 10 0 a5 5 0 1 0 -10 0z" fill="#3a7cc3"></path><path d="M870 650L1010 510L1010 490L970 450L950 450L790 610" stroke-width="3.33" stroke="#3a7cc3"></path><path d="M865 650 a5 5 0 1 0 10 0 a5 5 0 1 0 -10 0zM785 610 a5 5 0 1 0 10 0 a5 5 0 1 0 -10 0z" fill="#3a7cc3"></path><path d="M130 690L150 670L150 330" stroke-width="3.33" stroke="#3a7cc3"></path><path d="M125 690 a5 5 0 1 0 10 0 a5 5 0 1 0 -10 0zM145 330 a5 5 0 1 0 10 0 a5 5 0 1 0 -10 0z" fill="#3a7cc3"></path><path d="M30 230L30 290L70 330L70 410L50 430L30 430" stroke-width="3.33" stroke="#3a7cc3"></path><path d="M25 230 a5 5 0 1 0 10 0 a5 5 0 1 0 -10 0zM25 430 a5 5 0 1 0 10 0 a5 5 0 1 0 -10 0z" fill="#3a7cc3"></path><path d="M810 410L850 450L910 450L930 430" stroke-width="3.33" stroke="#3a7cc3"></path><path d="M805 410 a5 5 0 1 0 10 0 a5 5 0 1 0 -10 0zM925 430 a5 5 0 1 0 10 0 a5 5 0 1 0 -10 0z" fill="#3a7cc3"></path><path d="M1230 90L1370 90L1430 30L1430 10" stroke-width="3.33" stroke="#3a7cc3"></path><path d="M1225 90 a5 5 0 1 0 10 0 a5 5 0 1 0 -10 0zM1425 10 a5 5 0 1 0 10 0 a5 5 0 1 0 -10 0z" fill="#3a7cc3"></path><path d="M930 690L950 690L970 710L1150 710L1190 670" stroke-width="3.33" stroke="#3a7cc3"></path><path d="M925 690 a5 5 0 1 0 10 0 a5 5 0 1 0 -10 0zM1185 670 a5 5 0 1 0 10 0 a5 5 0 1 0 -10 0z" fill="#3a7cc3"></path><path d="M490 670L530 710L870 710" stroke-width="3.33" stroke="#3a7cc3"></path><path d="M485 670 a5 5 0 1 0 10 0 a5 5 0 1 0 -10 0zM865 710 a5 5 0 1 0 10 0 a5 5 0 1 0 -10 0z" fill="#3a7cc3"></path><path d="M1390 290L1330 290L1270 350" stroke-width="3.33" stroke="#3a7cc3"></path><path d="M1385 290 a5 5 0 1 0 10 0 a5 5 0 1 0 -10 0zM1265 350 a5 5 0 1 0 10 0 a5 5 0 1 0 -10 0z" fill="#3a7cc3"></path><path d="M570 390L570 150L650 70" stroke-width="3.33" stroke="#3a7cc3"></path><path d="M565 390 a5 5 0 1 0 10 0 a5 5 0 1 0 -10 0zM645 70 a5 5 0 1 0 10 0 a5 5 0 1 0 -10 0z" fill="#3a7cc3"></path><path d="M250 510L350 510L450 610L450 650L430 670L410 670" stroke-width="3.33" stroke="#3a7cc3"></path><path d="M245 510 a5 5 0 1 0 10 0 a5 5 0 1 0 -10 0zM405 670 a5 5 0 1 0 10 0 a5 5 0 1 0 -10 0z" fill="#3a7cc3"></path><path d="M290 530L410 650L430 650" stroke-width="3.33" stroke="#3a7cc3"></path><path d="M285 530 a5 5 0 1 0 10 0 a5 5 0 1 0 -10 0zM425 650 a5 5 0 1 0 10 0 a5 5 0 1 0 -10 0z" fill="#3a7cc3"></path><path d="M70 670L130 670" stroke-width="3.33" stroke="#3a7cc3"></path><path d="M65 670 a5 5 0 1 0 10 0 a5 5 0 1 0 -10 0zM125 670 a5 5 0 1 0 10 0 a5 5 0 1 0 -10 0z" fill="#3a7cc3"></path><path d="M970 410L830 270L810 270" stroke-width="3.33" stroke="#3a7cc3"></path><path d="M965 410 a5 5 0 1 0 10 0 a5 5 0 1 0 -10 0zM805 270 a5 5 0 1 0 10 0 a5 5 0 1 0 -10 0z" fill="#3a7cc3"></path><path d="M570 90L610 50L630 50" stroke-width="3.33" stroke="#3a7cc3"></path><path d="M565 90 a5 5 0 1 0 10 0 a5 5 0 1 0 -10 0zM625 50 a5 5 0 1 0 10 0 a5 5 0 1 0 -10 0z" fill="#3a7cc3"></path><path d="M330 610L350 610L370 630L370 690" stroke-width="3.33" stroke="#3a7cc3"></path><path d="M325 610 a5 5 0 1 0 10 0 a5 5 0 1 0 -10 0zM365 690 a5 5 0 1 0 10 0 a5 5 0 1 0 -10 0z" fill="#3a7cc3"></path><path d="M870 390L850 390L830 410" stroke-width="3.33" stroke="#3a7cc3"></path><path d="M865 390 a5 5 0 1 0 10 0 a5 5 0 1 0 -10 0zM825 410 a5 5 0 1 0 10 0 a5 5 0 1 0 -10 0z" fill="#3a7cc3"></path><path d="M1030 110L1050 130L1070 130" stroke-width="3.33" stroke="#3a7cc3"></path><path d="M1025 110 a5 5 0 1 0 10 0 a5 5 0 1 0 -10 0zM1065 130 a5 5 0 1 0 10 0 a5 5 0 1 0 -10 0z" fill="#3a7cc3"></path><path d="M1010 670L950 610L950 590L1030 510" stroke-width="3.33" stroke="#3a7cc3"></path><path d="M1005 670 a5 5 0 1 0 10 0 a5 5 0 1 0 -10 0zM1025 510 a5 5 0 1 0 10 0 a5 5 0 1 0 -10 0z" fill="#3a7cc3"></path><path d="M110 650L10 650" stroke-width="3.33" stroke="#3a7cc3"></path><path d="M105 650 a5 5 0 1 0 10 0 a5 5 0 1 0 -10 0zM5 650 a5 5 0 1 0 10 0 a5 5 0 1 0 -10 0z" fill="#3a7cc3"></path><path d="M190 230L190 150L210 130L210 110L230 90" stroke-width="3.33" stroke="#3a7cc3"></path><path d="M185 230 a5 5 0 1 0 10 0 a5 5 0 1 0 -10 0zM225 90 a5 5 0 1 0 10 0 a5 5 0 1 0 -10 0z" fill="#3a7cc3"></path><path d="M570 430L630 370L630 150L610 130" stroke-width="3.33" stroke="#3a7cc3"></path><path d="M565 430 a5 5 0 1 0 10 0 a5 5 0 1 0 -10 0zM605 130 a5 5 0 1 0 10 0 a5 5 0 1 0 -10 0z" fill="#3a7cc3"></path><path d="M1070 670L1170 670" stroke-width="3.33" stroke="#3a7cc3"></path><path d="M1065 670 a5 5 0 1 0 10 0 a5 5 0 1 0 -10 0zM1165 670 a5 5 0 1 0 10 0 a5 5 0 1 0 -10 0z" fill="#3a7cc3"></path><path d="M1110 370L1050 370L1010 330L1010 210" stroke-width="3.33" stroke="#3a7cc3"></path><path d="M1105 370 a5 5 0 1 0 10 0 a5 5 0 1 0 -10 0zM1005 210 a5 5 0 1 0 10 0 a5 5 0 1 0 -10 0z" fill="#3a7cc3"></path><path d="M930 550L950 550L990 510L990 490L970 470L950 470L870 550L870 630L810 690L770 690" stroke-width="3.33" stroke="#3a7cc3"></path><path d="M925 550 a5 5 0 1 0 10 0 a5 5 0 1 0 -10 0zM765 690 a5 5 0 1 0 10 0 a5 5 0 1 0 -10 0z" fill="#3a7cc3"></path><path d="M170 590L170 670L190 690L290 690L310 710" stroke-width="3.33" stroke="#3a7cc3"></path><path d="M165 590 a5 5 0 1 0 10 0 a5 5 0 1 0 -10 0zM305 710 a5 5 0 1 0 10 0 a5 5 0 1 0 -10 0z" fill="#3a7cc3"></path><path d="M1170 710L1190 690L1350 690L1370 710" stroke-width="3.33" stroke="#3a7cc3"></path><path d="M1165 710 a5 5 0 1 0 10 0 a5 5 0 1 0 -10 0zM1365 710 a5 5 0 1 0 10 0 a5 5 0 1 0 -10 0z" fill="#3a7cc3"></path><path d="M550 570L610 570L630 550L630 390" stroke-width="3.33" stroke="#3a7cc3"></path><path d="M545 570 a5 5 0 1 0 10 0 a5 5 0 1 0 -10 0zM625 390 a5 5 0 1 0 10 0 a5 5 0 1 0 -10 0z" fill="#3a7cc3"></path><path d="M470 290L430 330L430 530L490 590L550 590" stroke-width="3.33" stroke="#3a7cc3"></path><path d="M465 290 a5 5 0 1 0 10 0 a5 5 0 1 0 -10 0zM545 590 a5 5 0 1 0 10 0 a5 5 0 1 0 -10 0z" fill="#3a7cc3"></path><path d="M790 330L750 290L730 290L670 350L670 450" stroke-width="3.33" stroke="#3a7cc3"></path><path d="M785 330 a5 5 0 1 0 10 0 a5 5 0 1 0 -10 0zM665 450 a5 5 0 1 0 10 0 a5 5 0 1 0 -10 0z" fill="#3a7cc3"></path><path d="M590 270L590 310L610 330L610 370L590 390" stroke-width="3.33" stroke="#3a7cc3"></path><path d="M585 270 a5 5 0 1 0 10 0 a5 5 0 1 0 -10 0zM585 390 a5 5 0 1 0 10 0 a5 5 0 1 0 -10 0z" fill="#3a7cc3"></path><path d="M730 50L710 30L690 30" stroke-width="3.33" stroke="#3a7cc3"></path><path d="M725 50 a5 5 0 1 0 10 0 a5 5 0 1 0 -10 0zM685 30 a5 5 0 1 0 10 0 a5 5 0 1 0 -10 0z" fill="#3a7cc3"></path><path d="M450 190L350 90L290 90" stroke-width="3.33" stroke="#3a7cc3"></path><path d="M445 190 a5 5 0 1 0 10 0 a5 5 0 1 0 -10 0zM285 90 a5 5 0 1 0 10 0 a5 5 0 1 0 -10 0z" fill="#3a7cc3"></path><path d="M310 590L310 670L330 690L350 690" stroke-width="3.33" stroke="#3a7cc3"></path><path d="M305 590 a5 5 0 1 0 10 0 a5 5 0 1 0 -10 0zM345 690 a5 5 0 1 0 10 0 a5 5 0 1 0 -10 0z" fill="#3a7cc3"></path><path d="M1150 350L1110 390L1070 390" stroke-width="3.33" stroke="#3a7cc3"></path><path d="M1145 350 a5 5 0 1 0 10 0 a5 5 0 1 0 -10 0zM1065 390 a5 5 0 1 0 10 0 a5 5 0 1 0 -10 0z" fill="#3a7cc3"></path><path d="M790 550L730 490L670 490" stroke-width="3.33" stroke="#3a7cc3"></path><path d="M785 550 a5 5 0 1 0 10 0 a5 5 0 1 0 -10 0zM665 490 a5 5 0 1 0 10 0 a5 5 0 1 0 -10 0z" fill="#3a7cc3"></path><path d="M770 410L730 450L690 450" stroke-width="3.33" stroke="#3a7cc3"></path><path d="M765 410 a5 5 0 1 0 10 0 a5 5 0 1 0 -10 0zM685 450 a5 5 0 1 0 10 0 a5 5 0 1 0 -10 0z" fill="#3a7cc3"></path><path d="M250 30L230 10L90 10" stroke-width="3.33" stroke="#3a7cc3"></path><path d="M245 30 a5 5 0 1 0 10 0 a5 5 0 1 0 -10 0zM85 10 a5 5 0 1 0 10 0 a5 5 0 1 0 -10 0z" fill="#3a7cc3"></path><path d="M210 330L190 330L110 250L110 230" stroke-width="3.33" stroke="#3a7cc3"></path><path d="M205 330 a5 5 0 1 0 10 0 a5 5 0 1 0 -10 0zM105 230 a5 5 0 1 0 10 0 a5 5 0 1 0 -10 0z" fill="#3a7cc3"></path><path d="M1010 630L1150 630L1170 650" stroke-width="3.33" stroke="#3a7cc3"></path><path d="M1005 630 a5 5 0 1 0 10 0 a5 5 0 1 0 -10 0zM1165 650 a5 5 0 1 0 10 0 a5 5 0 1 0 -10 0z" fill="#3a7cc3"></path><path d="M450 330L610 490L610 550" stroke-width="3.33" stroke="#3a7cc3"></path><path d="M445 330 a5 5 0 1 0 10 0 a5 5 0 1 0 -10 0zM605 550 a5 5 0 1 0 10 0 a5 5 0 1 0 -10 0z" fill="#3a7cc3"></path><path d="M270 490L350 490" stroke-width="3.33" stroke="#3a7cc3"></path><path d="M265 490 a5 5 0 1 0 10 0 a5 5 0 1 0 -10 0zM345 490 a5 5 0 1 0 10 0 a5 5 0 1 0 -10 0z" fill="#3a7cc3"></path><path d="M1110 590L1050 530L1030 530L970 590L970 610L990 630" stroke-width="3.33" stroke="#3a7cc3"></path><path d="M1105 590 a5 5 0 1 0 10 0 a5 5 0 1 0 -10 0zM985 630 a5 5 0 1 0 10 0 a5 5 0 1 0 -10 0z" fill="#3a7cc3"></path><path d="M1270 110L1250 130L1110 130" stroke-width="3.33" stroke="#3a7cc3"></path><path d="M1265 110 a5 5 0 1 0 10 0 a5 5 0 1 0 -10 0zM1105 130 a5 5 0 1 0 10 0 a5 5 0 1 0 -10 0z" fill="#3a7cc3"></path><path d="M610 670L630 690L750 690L810 630L850 630" stroke-width="3.33" stroke="#3a7cc3"></path><path d="M605 670 a5 5 0 1 0 10 0 a5 5 0 1 0 -10 0zM845 630 a5 5 0 1 0 10 0 a5 5 0 1 0 -10 0z" fill="#3a7cc3"></path><path d="M970 90L1010 90" stroke-width="3.33" stroke="#3a7cc3"></path><path d="M965 90 a5 5 0 1 0 10 0 a5 5 0 1 0 -10 0zM1005 90 a5 5 0 1 0 10 0 a5 5 0 1 0 -10 0z" fill="#3a7cc3"></path><path d="M210 230L170 270L170 290L190 310L250 310L270 290L450 290L490 250" stroke-width="3.33" stroke="#3a7cc3"></path><path d="M205 230 a5 5 0 1 0 10 0 a5 5 0 1 0 -10 0zM485 250 a5 5 0 1 0 10 0 a5 5 0 1 0 -10 0z" fill="#3a7cc3"></path><path d="M210 70L130 150L130 190L150 210L170 210" stroke-width="3.33" stroke="#3a7cc3"></path><path d="M205 70 a5 5 0 1 0 10 0 a5 5 0 1 0 -10 0zM165 210 a5 5 0 1 0 10 0 a5 5 0 1 0 -10 0z" fill="#3a7cc3"></path><path d="M130 70L90 70" stroke-width="3.33" stroke="#3a7cc3"></path><path d="M125 70 a5 5 0 1 0 10 0 a5 5 0 1 0 -10 0zM85 70 a5 5 0 1 0 10 0 a5 5 0 1 0 -10 0z" fill="#3a7cc3"></path><path d="M1390 670L1430 630L1430 530L1410 510L1410 490L1430 470" stroke-width="3.33" stroke="#3a7cc3"></path><path d="M1385 670 a5 5 0 1 0 10 0 a5 5 0 1 0 -10 0zM1425 470 a5 5 0 1 0 10 0 a5 5 0 1 0 -10 0z" fill="#3a7cc3"></path><path d="M470 210L510 250L550 250" stroke-width="3.33" stroke="#3a7cc3"></path><path d="M465 210 a5 5 0 1 0 10 0 a5 5 0 1 0 -10 0zM545 250 a5 5 0 1 0 10 0 a5 5 0 1 0 -10 0z" fill="#3a7cc3"></path><path d="M650 630L650 670" stroke-width="3.33" stroke="#3a7cc3"></path><path d="M645 630 a5 5 0 1 0 10 0 a5 5 0 1 0 -10 0zM645 670 a5 5 0 1 0 10 0 a5 5 0 1 0 -10 0z" fill="#3a7cc3"></path><path d="M370 270L350 250L210 250L190 270L190 290" stroke-width="3.33" stroke="#3a7cc3"></path><path d="M365 270 a5 5 0 1 0 10 0 a5 5 0 1 0 -10 0zM185 290 a5 5 0 1 0 10 0 a5 5 0 1 0 -10 0z" fill="#3a7cc3"></path><path d="M490 530L510 550L510 570" stroke-width="3.33" stroke="#3a7cc3"></path><path d="M485 530 a5 5 0 1 0 10 0 a5 5 0 1 0 -10 0zM505 570 a5 5 0 1 0 10 0 a5 5 0 1 0 -10 0z" fill="#3a7cc3"></path><path d="M110 630L110 550L50 490" stroke-width="3.33" stroke="#3a7cc3"></path><path d="M105 630 a5 5 0 1 0 10 0 a5 5 0 1 0 -10 0zM45 490 a5 5 0 1 0 10 0 a5 5 0 1 0 -10 0z" fill="#3a7cc3"></path><path d="M310 350L310 390L350 430L350 470" stroke-width="3.33" stroke="#3a7cc3"></path><path d="M305 350 a5 5 0 1 0 10 0 a5 5 0 1 0 -10 0zM345 470 a5 5 0 1 0 10 0 a5 5 0 1 0 -10 0z" fill="#3a7cc3"></path><path d="M350 10L370 30L390 30L410 10" stroke-width="3.33" stroke="#3a7cc3"></path><path d="M345 10 a5 5 0 1 0 10 0 a5 5 0 1 0 -10 0zM405 10 a5 5 0 1 0 10 0 a5 5 0 1 0 -10 0z" fill="#3a7cc3"></path><path d="M250 530L270 530L310 570" stroke-width="3.33" stroke="#3a7cc3"></path><path d="M245 530 a5 5 0 1 0 10 0 a5 5 0 1 0 -10 0zM305 570 a5 5 0 1 0 10 0 a5 5 0 1 0 -10 0z" fill="#3a7cc3"></path><path d="M490 190L490 210L510 230L550 230" stroke-width="3.33" stroke="#3a7cc3"></path><path d="M485 190 a5 5 0 1 0 10 0 a5 5 0 1 0 -10 0zM545 230 a5 5 0 1 0 10 0 a5 5 0 1 0 -10 0z" fill="#3a7cc3"></path><path d="M1250 510L1070 510" stroke-width="3.33" stroke="#3a7cc3"></path><path d="M1245 510 a5 5 0 1 0 10 0 a5 5 0 1 0 -10 0zM1065 510 a5 5 0 1 0 10 0 a5 5 0 1 0 -10 0z" fill="#3a7cc3"></path><path d="M1250 190L1190 250L1170 250L1130 210" stroke-width="3.33" stroke="#3a7cc3"></path><path d="M1245 190 a5 5 0 1 0 10 0 a5 5 0 1 0 -10 0zM1125 210 a5 5 0 1 0 10 0 a5 5 0 1 0 -10 0z" fill="#3a7cc3"></path><path d="M1290 10L1210 90L1190 90" stroke-width="3.33" stroke="#3a7cc3"></path><path d="M1285 10 a5 5 0 1 0 10 0 a5 5 0 1 0 -10 0zM1185 90 a5 5 0 1 0 10 0 a5 5 0 1 0 -10 0z" fill="#3a7cc3"></path><path d="M790 510L770 510L750 490" stroke-width="3.33" stroke="#3a7cc3"></path><path d="M785 510 a5 5 0 1 0 10 0 a5 5 0 1 0 -10 0zM745 490 a5 5 0 1 0 10 0 a5 5 0 1 0 -10 0z" fill="#3a7cc3"></path><path d="M1210 710L1290 710" stroke-width="3.33" stroke="#3a7cc3"></path><path d="M1205 710 a5 5 0 1 0 10 0 a5 5 0 1 0 -10 0zM1285 710 a5 5 0 1 0 10 0 a5 5 0 1 0 -10 0z" fill="#3a7cc3"></path><path d="M1190 310L1190 370L1170 390L1130 390" stroke-width="3.33" stroke="#3a7cc3"></path><path d="M1185 310 a5 5 0 1 0 10 0 a5 5 0 1 0 -10 0zM1125 390 a5 5 0 1 0 10 0 a5 5 0 1 0 -10 0z" fill="#3a7cc3"></path><path d="M1390 350L1390 310" stroke-width="3.33" stroke="#3a7cc3"></path><path d="M1385 350 a5 5 0 1 0 10 0 a5 5 0 1 0 -10 0zM1385 310 a5 5 0 1 0 10 0 a5 5 0 1 0 -10 0z" fill="#3a7cc3"></path><path d="M550 450L550 550" stroke-width="3.33" stroke="#3a7cc3"></path><path d="M545 450 a5 5 0 1 0 10 0 a5 5 0 1 0 -10 0zM545 550 a5 5 0 1 0 10 0 a5 5 0 1 0 -10 0z" fill="#3a7cc3"></path><path d="M1250 610L1250 650" stroke-width="3.33" stroke="#3a7cc3"></path><path d="M1245 610 a5 5 0 1 0 10 0 a5 5 0 1 0 -10 0zM1245 650 a5 5 0 1 0 10 0 a5 5 0 1 0 -10 0z" fill="#3a7cc3"></path><path d="M470 190L470 150L530 90L530 50" stroke-width="3.33" stroke="#3a7cc3"></path><path d="M465 190 a5 5 0 1 0 10 0 a5 5 0 1 0 -10 0zM525 50 a5 5 0 1 0 10 0 a5 5 0 1 0 -10 0z" fill="#3a7cc3"></path><path d="M170 470L170 570L270 670" stroke-width="3.33" stroke="#3a7cc3"></path><path d="M165 470 a5 5 0 1 0 10 0 a5 5 0 1 0 -10 0zM265 670 a5 5 0 1 0 10 0 a5 5 0 1 0 -10 0z" fill="#3a7cc3"></path><path d="M670 610L670 670" stroke-width="3.33" stroke="#3a7cc3"></path><path d="M665 610 a5 5 0 1 0 10 0 a5 5 0 1 0 -10 0zM665 670 a5 5 0 1 0 10 0 a5 5 0 1 0 -10 0z" fill="#3a7cc3"></path><path d="M390 330L390 370L410 390L410 470" stroke-width="3.33" stroke="#3a7cc3"></path><path d="M385 330 a5 5 0 1 0 10 0 a5 5 0 1 0 -10 0zM405 470 a5 5 0 1 0 10 0 a5 5 0 1 0 -10 0z" fill="#3a7cc3"></path><path d="M970 210L970 310" stroke-width="3.33" stroke="#3a7cc3"></path><path d="M965 210 a5 5 0 1 0 10 0 a5 5 0 1 0 -10 0zM965 310 a5 5 0 1 0 10 0 a5 5 0 1 0 -10 0z" fill="#3a7cc3"></path><path d="M770 130L790 150L870 150L890 130" stroke-width="3.33" stroke="#3a7cc3"></path><path d="M765 130 a5 5 0 1 0 10 0 a5 5 0 1 0 -10 0zM885 130 a5 5 0 1 0 10 0 a5 5 0 1 0 -10 0z" fill="#3a7cc3"></path><path d="M1230 630L1230 590L1210 570L1210 530" stroke-width="3.33" stroke="#3a7cc3"></path><path d="M1225 630 a5 5 0 1 0 10 0 a5 5 0 1 0 -10 0zM1205 530 a5 5 0 1 0 10 0 a5 5 0 1 0 -10 0z" fill="#3a7cc3"></path><path d="M550 410L470 330L470 310L510 270L550 270" stroke-width="3.33" stroke="#3a7cc3"></path><path d="M545 410 a5 5 0 1 0 10 0 a5 5 0 1 0 -10 0zM545 270 a5 5 0 1 0 10 0 a5 5 0 1 0 -10 0z" fill="#3a7cc3"></path><path d="M1270 50L1390 50L1410 30L1410 10" stroke-width="3.33" stroke="#3a7cc3"></path><path d="M1265 50 a5 5 0 1 0 10 0 a5 5 0 1 0 -10 0zM1405 10 a5 5 0 1 0 10 0 a5 5 0 1 0 -10 0z" fill="#3a7cc3"></path><path d="M50 130L50 10" stroke-width="3.33" stroke="#3a7cc3"></path><path d="M45 130 a5 5 0 1 0 10 0 a5 5 0 1 0 -10 0zM45 10 a5 5 0 1 0 10 0 a5 5 0 1 0 -10 0z" fill="#3a7cc3"></path><path d="M110 30L170 90" stroke-width="3.33" stroke="#3a7cc3"></path><path d="M105 30 a5 5 0 1 0 10 0 a5 5 0 1 0 -10 0zM165 90 a5 5 0 1 0 10 0 a5 5 0 1 0 -10 0z" fill="#3a7cc3"></path><path d="M1290 450L1330 490L1330 530L1290 570L1290 590L1370 670" stroke-width="3.33" stroke="#3a7cc3"></path><path d="M1285 450 a5 5 0 1 0 10 0 a5 5 0 1 0 -10 0zM1365 670 a5 5 0 1 0 10 0 a5 5 0 1 0 -10 0z" fill="#3a7cc3"></path><path d="M110 370L110 510L130 530" stroke-width="3.33" stroke="#3a7cc3"></path><path d="M105 370 a5 5 0 1 0 10 0 a5 5 0 1 0 -10 0zM125 530 a5 5 0 1 0 10 0 a5 5 0 1 0 -10 0z" fill="#3a7cc3"></path><path d="M230 330L230 370L330 470" stroke-width="3.33" stroke="#3a7cc3"></path><path d="M225 330 a5 5 0 1 0 10 0 a5 5 0 1 0 -10 0zM325 470 a5 5 0 1 0 10 0 a5 5 0 1 0 -10 0z" fill="#3a7cc3"></path><path d="M1110 550L1210 650L1230 650" stroke-width="3.33" stroke="#3a7cc3"></path><path d="M1105 550 a5 5 0 1 0 10 0 a5 5 0 1 0 -10 0zM1225 650 a5 5 0 1 0 10 0 a5 5 0 1 0 -10 0z" fill="#3a7cc3"></path><path d="M1030 410L1030 430L1070 470L1130 470L1150 450L1150 430" stroke-width="3.33" stroke="#3a7cc3"></path><path d="M1025 410 a5 5 0 1 0 10 0 a5 5 0 1 0 -10 0zM1145 430 a5 5 0 1 0 10 0 a5 5 0 1 0 -10 0z" fill="#3a7cc3"></path><path d="M1410 610L1410 630L1390 650L1370 650L1310 590" stroke-width="3.33" stroke="#3a7cc3"></path><path d="M1405 610 a5 5 0 1 0 10 0 a5 5 0 1 0 -10 0zM1305 590 a5 5 0 1 0 10 0 a5 5 0 1 0 -10 0z" fill="#3a7cc3"></path><path d="M1190 230L1170 230L1150 210L1150 190" stroke-width="3.33" stroke="#3a7cc3"></path><path d="M1185 230 a5 5 0 1 0 10 0 a5 5 0 1 0 -10 0zM1145 190 a5 5 0 1 0 10 0 a5 5 0 1 0 -10 0z" fill="#3a7cc3"></path><path d="M350 110L290 110" stroke-width="3.33" stroke="#3a7cc3"></path><path d="M345 110 a5 5 0 1 0 10 0 a5 5 0 1 0 -10 0zM285 110 a5 5 0 1 0 10 0 a5 5 0 1 0 -10 0z" fill="#3a7cc3"></path><path d="M290 390L290 370L250 330" stroke-width="3.33" stroke="#3a7cc3"></path><path d="M285 390 a5 5 0 1 0 10 0 a5 5 0 1 0 -10 0zM245 330 a5 5 0 1 0 10 0 a5 5 0 1 0 -10 0z" fill="#3a7cc3"></path><path d="M670 150L670 190L650 210" stroke-width="3.33" stroke="#3a7cc3"></path><path d="M665 150 a5 5 0 1 0 10 0 a5 5 0 1 0 -10 0zM645 210 a5 5 0 1 0 10 0 a5 5 0 1 0 -10 0z" fill="#3a7cc3"></path><path d="M1310 250L1250 310" stroke-width="3.33" stroke="#3a7cc3"></path><path d="M1305 250 a5 5 0 1 0 10 0 a5 5 0 1 0 -10 0zM1245 310 a5 5 0 1 0 10 0 a5 5 0 1 0 -10 0z" fill="#3a7cc3"></path><path d="M1030 550L1070 590L1070 610" stroke-width="3.33" stroke="#3a7cc3"></path><path d="M1025 550 a5 5 0 1 0 10 0 a5 5 0 1 0 -10 0zM1065 610 a5 5 0 1 0 10 0 a5 5 0 1 0 -10 0z" fill="#3a7cc3"></path><path d="M490 430L530 430" stroke-width="3.33" stroke="#3a7cc3"></path><path d="M485 430 a5 5 0 1 0 10 0 a5 5 0 1 0 -10 0zM525 430 a5 5 0 1 0 10 0 a5 5 0 1 0 -10 0z" fill="#3a7cc3"></path><path d="M350 150L350 210" stroke-width="3.33" stroke="#3a7cc3"></path><path d="M345 150 a5 5 0 1 0 10 0 a5 5 0 1 0 -10 0zM345 210 a5 5 0 1 0 10 0 a5 5 0 1 0 -10 0z" fill="#3a7cc3"></path><path d="M330 130L370 130L470 230L470 250L450 270L390 270L370 250" stroke-width="3.33" stroke="#3a7cc3"></path><path d="M325 130 a5 5 0 1 0 10 0 a5 5 0 1 0 -10 0zM365 250 a5 5 0 1 0 10 0 a5 5 0 1 0 -10 0z" fill="#3a7cc3"></path><path d="M1210 10L1150 70L1110 70" stroke-width="3.33" stroke="#3a7cc3"></path><path d="M1205 10 a5 5 0 1 0 10 0 a5 5 0 1 0 -10 0zM1105 70 a5 5 0 1 0 10 0 a5 5 0 1 0 -10 0z" fill="#3a7cc3"></path><path d="M210 630L250 670" stroke-width="3.33" stroke="#3a7cc3"></path><path d="M205 630 a5 5 0 1 0 10 0 a5 5 0 1 0 -10 0zM245 670 a5 5 0 1 0 10 0 a5 5 0 1 0 -10 0z" fill="#3a7cc3"></path><path d="M550 170L510 130" stroke-width="3.33" stroke="#3a7cc3"></path><path d="M545 170 a5 5 0 1 0 10 0 a5 5 0 1 0 -10 0zM505 130 a5 5 0 1 0 10 0 a5 5 0 1 0 -10 0z" fill="#3a7cc3"></path><path d="M1110 310L1110 230L1090 210L1030 210" stroke-width="3.33" stroke="#3a7cc3"></path><path d="M1105 310 a5 5 0 1 0 10 0 a5 5 0 1 0 -10 0zM1025 210 a5 5 0 1 0 10 0 a5 5 0 1 0 -10 0z" fill="#3a7cc3"></path><path d="M590 190L590 250L610 270L610 310" stroke-width="3.33" stroke="#3a7cc3"></path><path d="M585 190 a5 5 0 1 0 10 0 a5 5 0 1 0 -10 0zM605 310 a5 5 0 1 0 10 0 a5 5 0 1 0 -10 0z" fill="#3a7cc3"></path><path d="M870 270L870 250L850 230" stroke-width="3.33" stroke="#3a7cc3"></path><path d="M865 270 a5 5 0 1 0 10 0 a5 5 0 1 0 -10 0zM845 230 a5 5 0 1 0 10 0 a5 5 0 1 0 -10 0z" fill="#3a7cc3"></path><path d="M450 30L430 30L410 50" stroke-width="3.33" stroke="#3a7cc3"></path><path d="M445 30 a5 5 0 1 0 10 0 a5 5 0 1 0 -10 0zM405 50 a5 5 0 1 0 10 0 a5 5 0 1 0 -10 0z" fill="#3a7cc3"></path><path d="M110 690L10 690" stroke-width="3.33" stroke="#3a7cc3"></path><path d="M105 690 a5 5 0 1 0 10 0 a5 5 0 1 0 -10 0zM5 690 a5 5 0 1 0 10 0 a5 5 0 1 0 -10 0z" fill="#3a7cc3"></path><path d="M930 330L910 330L870 290" stroke-width="3.33" stroke="#3a7cc3"></path><path d="M925 330 a5 5 0 1 0 10 0 a5 5 0 1 0 -10 0zM865 290 a5 5 0 1 0 10 0 a5 5 0 1 0 -10 0z" fill="#3a7cc3"></path><path d="M170 30L230 30" stroke-width="3.33" stroke="#3a7cc3"></path><path d="M165 30 a5 5 0 1 0 10 0 a5 5 0 1 0 -10 0zM225 30 a5 5 0 1 0 10 0 a5 5 0 1 0 -10 0z" fill="#3a7cc3"></path><path d="M1370 490L1310 430L1170 430" stroke-width="3.33" stroke="#3a7cc3"></path><path d="M1365 490 a5 5 0 1 0 10 0 a5 5 0 1 0 -10 0zM1165 430 a5 5 0 1 0 10 0 a5 5 0 1 0 -10 0z" fill="#3a7cc3"></path><path d="M690 610L690 670" stroke-width="3.33" stroke="#3a7cc3"></path><path d="M685 610 a5 5 0 1 0 10 0 a5 5 0 1 0 -10 0zM685 670 a5 5 0 1 0 10 0 a5 5 0 1 0 -10 0z" fill="#3a7cc3"></path><path d="M330 430L310 410L290 410" stroke-width="3.33" stroke="#3a7cc3"></path><path d="M325 430 a5 5 0 1 0 10 0 a5 5 0 1 0 -10 0zM285 410 a5 5 0 1 0 10 0 a5 5 0 1 0 -10 0z" fill="#3a7cc3"></path><path d="M270 430L250 450L170 450" stroke-width="3.33" stroke="#3a7cc3"></path><path d="M265 430 a5 5 0 1 0 10 0 a5 5 0 1 0 -10 0zM165 450 a5 5 0 1 0 10 0 a5 5 0 1 0 -10 0z" fill="#3a7cc3"></path><path d="M1250 230L1250 210L1270 190L1310 190L1350 150L1350 110" stroke-width="3.33" stroke="#3a7cc3"></path><path d="M1245 230 a5 5 0 1 0 10 0 a5 5 0 1 0 -10 0zM1345 110 a5 5 0 1 0 10 0 a5 5 0 1 0 -10 0z" fill="#3a7cc3"></path><path d="M770 550L730 590L650 590L550 690L530 690L510 670L510 650" stroke-width="3.33" stroke="#3a7cc3"></path><path d="M765 550 a5 5 0 1 0 10 0 a5 5 0 1 0 -10 0zM505 650 a5 5 0 1 0 10 0 a5 5 0 1 0 -10 0z" fill="#3a7cc3"></path><path d="M1070 170L970 170" stroke-width="3.33" stroke="#3a7cc3"></path><path d="M1065 170 a5 5 0 1 0 10 0 a5 5 0 1 0 -10 0zM965 170 a5 5 0 1 0 10 0 a5 5 0 1 0 -10 0z" fill="#3a7cc3"></path><path d="M530 330L530 290" stroke-width="3.33" stroke="#3a7cc3"></path><path d="M525 330 a5 5 0 1 0 10 0 a5 5 0 1 0 -10 0zM525 290 a5 5 0 1 0 10 0 a5 5 0 1 0 -10 0z" fill="#3a7cc3"></path><path d="M210 190L210 150L230 130L230 110" stroke-width="3.33" stroke="#3a7cc3"></path><path d="M205 190 a5 5 0 1 0 10 0 a5 5 0 1 0 -10 0zM225 110 a5 5 0 1 0 10 0 a5 5 0 1 0 -10 0z" fill="#3a7cc3"></path><path d="M1070 330L1030 290L1030 250L1050 230L1090 230" stroke-width="3.33" stroke="#3a7cc3"></path><path d="M1065 330 a5 5 0 1 0 10 0 a5 5 0 1 0 -10 0zM1085 230 a5 5 0 1 0 10 0 a5 5 0 1 0 -10 0z" fill="#3a7cc3"></path><path d="M1090 10L1130 50L1150 50L1190 10" stroke-width="3.33" stroke="#3a7cc3"></path><path d="M1085 10 a5 5 0 1 0 10 0 a5 5 0 1 0 -10 0zM1185 10 a5 5 0 1 0 10 0 a5 5 0 1 0 -10 0z" fill="#3a7cc3"></path><path d="M910 430L850 430" stroke-width="3.33" stroke="#3a7cc3"></path><path d="M905 430 a5 5 0 1 0 10 0 a5 5 0 1 0 -10 0zM845 430 a5 5 0 1 0 10 0 a5 5 0 1 0 -10 0z" fill="#3a7cc3"></path><path d="M790 390L790 350L810 330" stroke-width="3.33" stroke="#3a7cc3"></path><path d="M785 390 a5 5 0 1 0 10 0 a5 5 0 1 0 -10 0zM805 330 a5 5 0 1 0 10 0 a5 5 0 1 0 -10 0z" fill="#3a7cc3"></path><path d="M530 350L550 330L550 290" stroke-width="3.33" stroke="#3a7cc3"></path><path d="M525 350 a5 5 0 1 0 10 0 a5 5 0 1 0 -10 0zM545 290 a5 5 0 1 0 10 0 a5 5 0 1 0 -10 0z" fill="#3a7cc3"></path><path d="M1130 550L1110 530L1090 530" stroke-width="3.33" stroke="#3a7cc3"></path><path d="M1125 550 a5 5 0 1 0 10 0 a5 5 0 1 0 -10 0zM1085 530 a5 5 0 1 0 10 0 a5 5 0 1 0 -10 0z" fill="#3a7cc3"></path><path d="M1290 70L1370 70" stroke-width="3.33" stroke="#3a7cc3"></path><path d="M1285 70 a5 5 0 1 0 10 0 a5 5 0 1 0 -10 0zM1365 70 a5 5 0 1 0 10 0 a5 5 0 1 0 -10 0z" fill="#3a7cc3"></path><path d="M910 250L930 270L950 270" stroke-width="3.33" stroke="#3a7cc3"></path><path d="M905 250 a5 5 0 1 0 10 0 a5 5 0 1 0 -10 0zM945 270 a5 5 0 1 0 10 0 a5 5 0 1 0 -10 0z" fill="#3a7cc3"></path><path d="M130 30L170 70L190 70L210 50" stroke-width="3.33" stroke="#3a7cc3"></path><path d="M125 30 a5 5 0 1 0 10 0 a5 5 0 1 0 -10 0zM205 50 a5 5 0 1 0 10 0 a5 5 0 1 0 -10 0z" fill="#3a7cc3"></path><path d="M770 370L710 430L690 430" stroke-width="3.33" stroke="#3a7cc3"></path><path d="M765 370 a5 5 0 1 0 10 0 a5 5 0 1 0 -10 0zM685 430 a5 5 0 1 0 10 0 a5 5 0 1 0 -10 0z" fill="#3a7cc3"></path><path d="M810 130L830 130L850 110" stroke-width="3.33" stroke="#3a7cc3"></path><path d="M805 130 a5 5 0 1 0 10 0 a5 5 0 1 0 -10 0zM845 110 a5 5 0 1 0 10 0 a5 5 0 1 0 -10 0z" fill="#3a7cc3"></path><path d="M370 550L430 610L430 630" stroke-width="3.33" stroke="#3a7cc3"></path><path d="M365 550 a5 5 0 1 0 10 0 a5 5 0 1 0 -10 0zM425 630 a5 5 0 1 0 10 0 a5 5 0 1 0 -10 0z" fill="#3a7cc3"></path><path d="M610 250L610 150" stroke-width="3.33" stroke="#3a7cc3"></path><path d="M605 250 a5 5 0 1 0 10 0 a5 5 0 1 0 -10 0zM605 150 a5 5 0 1 0 10 0 a5 5 0 1 0 -10 0z" fill="#3a7cc3"></path><path d="M890 10L930 50L970 50L1010 10" stroke-width="3.33" stroke="#3a7cc3"></path><path d="M885 10 a5 5 0 1 0 10 0 a5 5 0 1 0 -10 0zM1005 10 a5 5 0 1 0 10 0 a5 5 0 1 0 -10 0z" fill="#3a7cc3"></path><path d="M70 310L50 290L50 250" stroke-width="3.33" stroke="#3a7cc3"></path><path d="M65 310 a5 5 0 1 0 10 0 a5 5 0 1 0 -10 0zM45 250 a5 5 0 1 0 10 0 a5 5 0 1 0 -10 0z" fill="#3a7cc3"></path><path d="M170 350L170 410" stroke-width="3.33" stroke="#3a7cc3"></path><path d="M165 350 a5 5 0 1 0 10 0 a5 5 0 1 0 -10 0zM165 410 a5 5 0 1 0 10 0 a5 5 0 1 0 -10 0z" fill="#3a7cc3"></path><path d="M710 130L650 130L630 110" stroke-width="3.33" stroke="#3a7cc3"></path><path d="M705 130 a5 5 0 1 0 10 0 a5 5 0 1 0 -10 0zM625 110 a5 5 0 1 0 10 0 a5 5 0 1 0 -10 0z" fill="#3a7cc3"></path><path d="M1210 270L1210 250L1230 230" stroke-width="3.33" stroke="#3a7cc3"></path><path d="M1205 270 a5 5 0 1 0 10 0 a5 5 0 1 0 -10 0zM1225 230 a5 5 0 1 0 10 0 a5 5 0 1 0 -10 0z" fill="#3a7cc3"></path><path d="M930 110L910 110L890 90" stroke-width="3.33" stroke="#3a7cc3"></path><path d="M925 110 a5 5 0 1 0 10 0 a5 5 0 1 0 -10 0zM885 90 a5 5 0 1 0 10 0 a5 5 0 1 0 -10 0z" fill="#3a7cc3"></path><path d="M190 490L210 470L310 470" stroke-width="3.33" stroke="#3a7cc3"></path><path d="M185 490 a5 5 0 1 0 10 0 a5 5 0 1 0 -10 0zM305 470 a5 5 0 1 0 10 0 a5 5 0 1 0 -10 0z" fill="#3a7cc3"></path><path d="M230 590L270 550" stroke-width="3.33" stroke="#3a7cc3"></path><path d="M225 590 a5 5 0 1 0 10 0 a5 5 0 1 0 -10 0zM265 550 a5 5 0 1 0 10 0 a5 5 0 1 0 -10 0z" fill="#3a7cc3"></path><path d="M450 410L450 530L490 570" stroke-width="3.33" stroke="#3a7cc3"></path><path d="M445 410 a5 5 0 1 0 10 0 a5 5 0 1 0 -10 0zM485 570 a5 5 0 1 0 10 0 a5 5 0 1 0 -10 0z" fill="#3a7cc3"></path><path d="M330 370L350 370L370 350L370 310" stroke-width="3.33" stroke="#3a7cc3"></path><path d="M325 370 a5 5 0 1 0 10 0 a5 5 0 1 0 -10 0zM365 310 a5 5 0 1 0 10 0 a5 5 0 1 0 -10 0z" fill="#3a7cc3"></path><path d="M1210 330L1210 390" stroke-width="3.33" stroke="#3a7cc3"></path><path d="M1205 330 a5 5 0 1 0 10 0 a5 5 0 1 0 -10 0zM1205 390 a5 5 0 1 0 10 0 a5 5 0 1 0 -10 0z" fill="#3a7cc3"></path><path d="M1370 570L1390 590L1410 590" stroke-width="3.33" stroke="#3a7cc3"></path><path d="M1365 570 a5 5 0 1 0 10 0 a5 5 0 1 0 -10 0zM1405 590 a5 5 0 1 0 10 0 a5 5 0 1 0 -10 0z" fill="#3a7cc3"></path><path d="M50 170L50 190L70 210L90 210" stroke-width="3.33" stroke="#3a7cc3"></path><path d="M45 170 a5 5 0 1 0 10 0 a5 5 0 1 0 -10 0zM85 210 a5 5 0 1 0 10 0 a5 5 0 1 0 -10 0z" fill="#3a7cc3"></path><path d="M650 90L670 90L690 110" stroke-width="3.33" stroke="#3a7cc3"></path><path d="M645 90 a5 5 0 1 0 10 0 a5 5 0 1 0 -10 0zM685 110 a5 5 0 1 0 10 0 a5 5 0 1 0 -10 0z" fill="#3a7cc3"></path><path d="M1130 290L1170 330L1170 370" stroke-width="3.33" stroke="#3a7cc3"></path><path d="M1125 290 a5 5 0 1 0 10 0 a5 5 0 1 0 -10 0zM1165 370 a5 5 0 1 0 10 0 a5 5 0 1 0 -10 0z" fill="#3a7cc3"></path><path d="M1370 310L1310 370L1290 370" stroke-width="3.33" stroke="#3a7cc3"></path><path d="M1365 310 a5 5 0 1 0 10 0 a5 5 0 1 0 -10 0zM1285 370 a5 5 0 1 0 10 0 a5 5 0 1 0 -10 0z" fill="#3a7cc3"></path><path d="M10 570L10 470" stroke-width="3.33" stroke="#3a7cc3"></path><path d="M5 570 a5 5 0 1 0 10 0 a5 5 0 1 0 -10 0zM5 470 a5 5 0 1 0 10 0 a5 5 0 1 0 -10 0z" fill="#3a7cc3"></path><path d="M310 170L310 130" stroke-width="3.33" stroke="#3a7cc3"></path><path d="M305 170 a5 5 0 1 0 10 0 a5 5 0 1 0 -10 0zM305 130 a5 5 0 1 0 10 0 a5 5 0 1 0 -10 0z" fill="#3a7cc3"></path><path d="M1090 690L1010 690" stroke-width="3.33" stroke="#3a7cc3"></path><path d="M1085 690 a5 5 0 1 0 10 0 a5 5 0 1 0 -10 0zM1005 690 a5 5 0 1 0 10 0 a5 5 0 1 0 -10 0z" fill="#3a7cc3"></path><path d="M1270 210L1350 210L1390 250" stroke-width="3.33" stroke="#3a7cc3"></path><path d="M1265 210 a5 5 0 1 0 10 0 a5 5 0 1 0 -10 0zM1385 250 a5 5 0 1 0 10 0 a5 5 0 1 0 -10 0z" fill="#3a7cc3"></path><path d="M510 150L550 190L550 210" stroke-width="3.33" stroke="#3a7cc3"></path><path d="M505 150 a5 5 0 1 0 10 0 a5 5 0 1 0 -10 0zM545 210 a5 5 0 1 0 10 0 a5 5 0 1 0 -10 0z" fill="#3a7cc3"></path><path d="M1370 470L1350 450L1350 350L1370 330" stroke-width="3.33" stroke="#3a7cc3"></path><path d="M1365 470 a5 5 0 1 0 10 0 a5 5 0 1 0 -10 0zM1365 330 a5 5 0 1 0 10 0 a5 5 0 1 0 -10 0z" fill="#3a7cc3"></path><path d="M1210 30L1190 50L1190 70" stroke-width="3.33" stroke="#3a7cc3"></path><path d="M1205 30 a5 5 0 1 0 10 0 a5 5 0 1 0 -10 0zM1185 70 a5 5 0 1 0 10 0 a5 5 0 1 0 -10 0z" fill="#3a7cc3"></path><path d="M130 430L130 490" stroke-width="3.33" stroke="#3a7cc3"></path><path d="M125 430 a5 5 0 1 0 10 0 a5 5 0 1 0 -10 0zM125 490 a5 5 0 1 0 10 0 a5 5 0 1 0 -10 0z" fill="#3a7cc3"></path><path d="M1270 630L1310 670L1330 670" stroke-width="3.33" stroke="#3a7cc3"></path><path d="M1265 630 a5 5 0 1 0 10 0 a5 5 0 1 0 -10 0zM1325 670 a5 5 0 1 0 10 0 a5 5 0 1 0 -10 0z" fill="#3a7cc3"></path><path d="M750 30L790 70L830 70" stroke-width="3.33" stroke="#3a7cc3"></path><path d="M745 30 a5 5 0 1 0 10 0 a5 5 0 1 0 -10 0zM825 70 a5 5 0 1 0 10 0 a5 5 0 1 0 -10 0z" fill="#3a7cc3"></path><path d="M730 390L730 310" stroke-width="3.33" stroke="#3a7cc3"></path><path d="M725 390 a5 5 0 1 0 10 0 a5 5 0 1 0 -10 0zM725 310 a5 5 0 1 0 10 0 a5 5 0 1 0 -10 0z" fill="#3a7cc3"></path><path d="M450 90L510 90" stroke-width="3.33" stroke="#3a7cc3"></path><path d="M445 90 a5 5 0 1 0 10 0 a5 5 0 1 0 -10 0zM505 90 a5 5 0 1 0 10 0 a5 5 0 1 0 -10 0z" fill="#3a7cc3"></path><path d="M10 630L90 630" stroke-width="3.33" stroke="#3a7cc3"></path><path d="M5 630 a5 5 0 1 0 10 0 a5 5 0 1 0 -10 0zM85 630 a5 5 0 1 0 10 0 a5 5 0 1 0 -10 0z" fill="#3a7cc3"></path><path d="M870 10L910 50" stroke-width="3.33" stroke="#3a7cc3"></path><path d="M865 10 a5 5 0 1 0 10 0 a5 5 0 1 0 -10 0zM905 50 a5 5 0 1 0 10 0 a5 5 0 1 0 -10 0z" fill="#3a7cc3"></path><path d="M250 270L210 270" stroke-width="3.33" stroke="#3a7cc3"></path><path d="M245 270 a5 5 0 1 0 10 0 a5 5 0 1 0 -10 0zM205 270 a5 5 0 1 0 10 0 a5 5 0 1 0 -10 0z" fill="#3a7cc3"></path><path d="M890 230L850 190" stroke-width="3.33" stroke="#3a7cc3"></path><path d="M885 230 a5 5 0 1 0 10 0 a5 5 0 1 0 -10 0zM845 190 a5 5 0 1 0 10 0 a5 5 0 1 0 -10 0z" fill="#3a7cc3"></path><path d="M630 670L630 630" stroke-width="3.33" stroke="#3a7cc3"></path><path d="M625 670 a5 5 0 1 0 10 0 a5 5 0 1 0 -10 0zM625 630 a5 5 0 1 0 10 0 a5 5 0 1 0 -10 0z" fill="#3a7cc3"></path><path d="M410 130L450 170" stroke-width="3.33" stroke="#3a7cc3"></path><path d="M405 130 a5 5 0 1 0 10 0 a5 5 0 1 0 -10 0zM445 170 a5 5 0 1 0 10 0 a5 5 0 1 0 -10 0z" fill="#3a7cc3"></path><path d="M50 670L10 670" stroke-width="3.33" stroke="#3a7cc3"></path><path d="M45 670 a5 5 0 1 0 10 0 a5 5 0 1 0 -10 0zM5 670 a5 5 0 1 0 10 0 a5 5 0 1 0 -10 0z" fill="#3a7cc3"></path><path d="M1210 490L1310 490" stroke-width="3.33" stroke="#3a7cc3"></path><path d="M1205 490 a5 5 0 1 0 10 0 a5 5 0 1 0 -10 0zM1305 490 a5 5 0 1 0 10 0 a5 5 0 1 0 -10 0z" fill="#3a7cc3"></path><path d="M990 590L1050 590" stroke-width="3.33" stroke="#3a7cc3"></path><path d="M985 590 a5 5 0 1 0 10 0 a5 5 0 1 0 -10 0zM1045 590 a5 5 0 1 0 10 0 a5 5 0 1 0 -10 0z" fill="#3a7cc3"></path><path d="M190 650L190 610" stroke-width="3.33" stroke="#3a7cc3"></path><path d="M185 650 a5 5 0 1 0 10 0 a5 5 0 1 0 -10 0zM185 610 a5 5 0 1 0 10 0 a5 5 0 1 0 -10 0z" fill="#3a7cc3"></path><path d="M610 690L570 690" stroke-width="3.33" stroke="#3a7cc3"></path><path d="M605 690 a5 5 0 1 0 10 0 a5 5 0 1 0 -10 0zM565 690 a5 5 0 1 0 10 0 a5 5 0 1 0 -10 0z" fill="#3a7cc3"></path><path d="M410 210L410 250" stroke-width="3.33" stroke="#3a7cc3"></path><path d="M405 210 a5 5 0 1 0 10 0 a5 5 0 1 0 -10 0zM405 250 a5 5 0 1 0 10 0 a5 5 0 1 0 -10 0z" fill="#3a7cc3"></path><path d="M890 570L890 550L930 510L970 510" stroke-width="3.33" stroke="#3a7cc3"></path><path d="M885 570 a5 5 0 1 0 10 0 a5 5 0 1 0 -10 0zM965 510 a5 5 0 1 0 10 0 a5 5 0 1 0 -10 0z" fill="#3a7cc3"></path><path d="M470 390L470 370L450 350" stroke-width="3.33" stroke="#3a7cc3"></path><path d="M465 390 a5 5 0 1 0 10 0 a5 5 0 1 0 -10 0zM445 350 a5 5 0 1 0 10 0 a5 5 0 1 0 -10 0z" fill="#3a7cc3"></path><path d="M850 10L890 50" stroke-width="3.33" stroke="#3a7cc3"></path><path d="M845 10 a5 5 0 1 0 10 0 a5 5 0 1 0 -10 0zM885 50 a5 5 0 1 0 10 0 a5 5 0 1 0 -10 0z" fill="#3a7cc3"></path><path d="M1410 450L1410 410" stroke-width="3.33" stroke="#3a7cc3"></path><path d="M1405 450 a5 5 0 1 0 10 0 a5 5 0 1 0 -10 0zM1405 410 a5 5 0 1 0 10 0 a5 5 0 1 0 -10 0z" fill="#3a7cc3"></path><path d="M230 510L230 570" stroke-width="3.33" stroke="#3a7cc3"></path><path d="M225 510 a5 5 0 1 0 10 0 a5 5 0 1 0 -10 0zM225 570 a5 5 0 1 0 10 0 a5 5 0 1 0 -10 0z" fill="#3a7cc3"></path><path d="M950 210L950 250" stroke-width="3.33" stroke="#3a7cc3"></path><path d="M945 210 a5 5 0 1 0 10 0 a5 5 0 1 0 -10 0zM945 250 a5 5 0 1 0 10 0 a5 5 0 1 0 -10 0z" fill="#3a7cc3"></path><path d="M830 550L810 550L710 650L710 670" stroke-width="3.33" stroke="#3a7cc3"></path><path d="M825 550 a5 5 0 1 0 10 0 a5 5 0 1 0 -10 0zM705 670 a5 5 0 1 0 10 0 a5 5 0 1 0 -10 0z" fill="#3a7cc3"></path><path d="M570 470L570 510L590 530" stroke-width="3.33" stroke="#3a7cc3"></path><path d="M565 470 a5 5 0 1 0 10 0 a5 5 0 1 0 -10 0zM585 530 a5 5 0 1 0 10 0 a5 5 0 1 0 -10 0z" fill="#3a7cc3"></path><path d="M850 510L830 530L810 530" stroke-width="3.33" stroke="#3a7cc3"></path><path d="M845 510 a5 5 0 1 0 10 0 a5 5 0 1 0 -10 0zM805 530 a5 5 0 1 0 10 0 a5 5 0 1 0 -10 0z" fill="#3a7cc3"></path><path d="M130 410L130 350L70 290L70 270" stroke-width="3.33" stroke="#3a7cc3"></path><path d="M125 410 a5 5 0 1 0 10 0 a5 5 0 1 0 -10 0zM65 270 a5 5 0 1 0 10 0 a5 5 0 1 0 -10 0z" fill="#3a7cc3"></path><path d="M230 430L230 410L190 370" stroke-width="3.33" stroke="#3a7cc3"></path><path d="M225 430 a5 5 0 1 0 10 0 a5 5 0 1 0 -10 0zM185 370 a5 5 0 1 0 10 0 a5 5 0 1 0 -10 0z" fill="#3a7cc3"></path><path d="M250 210L290 210L310 230" stroke-width="3.33" stroke="#3a7cc3"></path><path d="M245 210 a5 5 0 1 0 10 0 a5 5 0 1 0 -10 0zM305 230 a5 5 0 1 0 10 0 a5 5 0 1 0 -10 0z" fill="#3a7cc3"></path><path d="M970 370L990 390L990 430" stroke-width="3.33" stroke="#3a7cc3"></path><path d="M965 370 a5 5 0 1 0 10 0 a5 5 0 1 0 -10 0zM985 430 a5 5 0 1 0 10 0 a5 5 0 1 0 -10 0z" fill="#3a7cc3"></path><path d="M1090 350L1070 350L1050 330L1030 330" stroke-width="3.33" stroke="#3a7cc3"></path><path d="M1085 350 a5 5 0 1 0 10 0 a5 5 0 1 0 -10 0zM1025 330 a5 5 0 1 0 10 0 a5 5 0 1 0 -10 0z" fill="#3a7cc3"></path><path d="M1410 690L1410 670L1430 650" stroke-width="3.33" stroke="#3a7cc3"></path><path d="M1405 690 a5 5 0 1 0 10 0 a5 5 0 1 0 -10 0zM1425 650 a5 5 0 1 0 10 0 a5 5 0 1 0 -10 0z" fill="#3a7cc3"></path><path d="M890 690L890 670L930 630L950 630L970 650" stroke-width="3.33" stroke="#3a7cc3"></path><path d="M885 690 a5 5 0 1 0 10 0 a5 5 0 1 0 -10 0zM965 650 a5 5 0 1 0 10 0 a5 5 0 1 0 -10 0z" fill="#3a7cc3"></path><path d="M1270 510L1290 530L1310 530" stroke-width="3.33" stroke="#3a7cc3"></path><path d="M1265 510 a5 5 0 1 0 10 0 a5 5 0 1 0 -10 0zM1305 530 a5 5 0 1 0 10 0 a5 5 0 1 0 -10 0z" fill="#3a7cc3"></path><path d="M1410 170L1410 130" stroke-width="3.33" stroke="#3a7cc3"></path><path d="M1405 170 a5 5 0 1 0 10 0 a5 5 0 1 0 -10 0zM1405 130 a5 5 0 1 0 10 0 a5 5 0 1 0 -10 0z" fill="#3a7cc3"></path><path d="M1250 10L1250 30L1230 50L1210 50" stroke-width="3.33" stroke="#3a7cc3"></path><path d="M1245 10 a5 5 0 1 0 10 0 a5 5 0 1 0 -10 0zM1205 50 a5 5 0 1 0 10 0 a5 5 0 1 0 -10 0z" fill="#3a7cc3"></path><path d="M690 410L710 390L710 330" stroke-width="3.33" stroke="#3a7cc3"></path><path d="M685 410 a5 5 0 1 0 10 0 a5 5 0 1 0 -10 0zM705 330 a5 5 0 1 0 10 0 a5 5 0 1 0 -10 0z" fill="#3a7cc3"></path><path d="M510 50L490 30L470 30L450 50" stroke-width="3.33" stroke="#3a7cc3"></path><path d="M505 50 a5 5 0 1 0 10 0 a5 5 0 1 0 -10 0zM445 50 a5 5 0 1 0 10 0 a5 5 0 1 0 -10 0z" fill="#3a7cc3"></path><path d="M1050 250L1090 250" stroke-width="3.33" stroke="#3a7cc3"></path><path d="M1045 250 a5 5 0 1 0 10 0 a5 5 0 1 0 -10 0zM1085 250 a5 5 0 1 0 10 0 a5 5 0 1 0 -10 0z" fill="#3a7cc3"></path><path d="M470 470L490 450L530 450" stroke-width="3.33" stroke="#3a7cc3"></path><path d="M465 470 a5 5 0 1 0 10 0 a5 5 0 1 0 -10 0zM525 450 a5 5 0 1 0 10 0 a5 5 0 1 0 -10 0z" fill="#3a7cc3"></path><path d="M710 230L710 190" stroke-width="3.33" stroke="#3a7cc3"></path><path d="M705 230 a5 5 0 1 0 10 0 a5 5 0 1 0 -10 0zM705 190 a5 5 0 1 0 10 0 a5 5 0 1 0 -10 0z" fill="#3a7cc3"></path><path d="M850 330L850 310L830 290L810 290" stroke-width="3.33" stroke="#3a7cc3"></path><path d="M845 330 a5 5 0 1 0 10 0 a5 5 0 1 0 -10 0zM805 290 a5 5 0 1 0 10 0 a5 5 0 1 0 -10 0z" fill="#3a7cc3"></path><path d="M370 210L390 210L410 190" stroke-width="3.33" stroke="#3a7cc3"></path><path d="M365 210 a5 5 0 1 0 10 0 a5 5 0 1 0 -10 0zM405 190 a5 5 0 1 0 10 0 a5 5 0 1 0 -10 0z" fill="#3a7cc3"></path><path d="M730 510L690 550L670 550" stroke-width="3.33" stroke="#3a7cc3"></path><path d="M725 510 a5 5 0 1 0 10 0 a5 5 0 1 0 -10 0zM665 550 a5 5 0 1 0 10 0 a5 5 0 1 0 -10 0z" fill="#3a7cc3"></path><path d="M1270 470L1230 470" stroke-width="3.33" stroke="#3a7cc3"></path><path d="M1265 470 a5 5 0 1 0 10 0 a5 5 0 1 0 -10 0zM1225 470 a5 5 0 1 0 10 0 a5 5 0 1 0 -10 0z" fill="#3a7cc3"></path><path d="M330 350L330 310" stroke-width="3.33" stroke="#3a7cc3"></path><path d="M325 350 a5 5 0 1 0 10 0 a5 5 0 1 0 -10 0zM325 310 a5 5 0 1 0 10 0 a5 5 0 1 0 -10 0z" fill="#3a7cc3"></path><path d="M670 310L710 270L710 250L690 230L690 210" stroke-width="3.33" stroke="#3a7cc3"></path><path d="M665 310 a5 5 0 1 0 10 0 a5 5 0 1 0 -10 0zM685 210 a5 5 0 1 0 10 0 a5 5 0 1 0 -10 0z" fill="#3a7cc3"></path><path d="M810 450L790 450L770 430" stroke-width="3.33" stroke="#3a7cc3"></path><path d="M805 450 a5 5 0 1 0 10 0 a5 5 0 1 0 -10 0zM765 430 a5 5 0 1 0 10 0 a5 5 0 1 0 -10 0z" fill="#3a7cc3"></path><path d="M930 90L950 90L970 110L990 110" stroke-width="3.33" stroke="#3a7cc3"></path><path d="M925 90 a5 5 0 1 0 10 0 a5 5 0 1 0 -10 0zM985 110 a5 5 0 1 0 10 0 a5 5 0 1 0 -10 0z" fill="#3a7cc3"></path><path d="M290 230L230 230L210 210" stroke-width="3.33" stroke="#3a7cc3"></path><path d="M285 230 a5 5 0 1 0 10 0 a5 5 0 1 0 -10 0zM205 210 a5 5 0 1 0 10 0 a5 5 0 1 0 -10 0z" fill="#3a7cc3"></path><path d="M330 30L310 10L250 10" stroke-width="3.33" stroke="#3a7cc3"></path><path d="M325 30 a5 5 0 1 0 10 0 a5 5 0 1 0 -10 0zM245 10 a5 5 0 1 0 10 0 a5 5 0 1 0 -10 0z" fill="#3a7cc3"></path><path d="M70 550L70 590L90 610" stroke-width="3.33" stroke="#3a7cc3"></path><path d="M65 550 a5 5 0 1 0 10 0 a5 5 0 1 0 -10 0zM85 610 a5 5 0 1 0 10 0 a5 5 0 1 0 -10 0z" fill="#3a7cc3"></path><path d="M90 330L90 390" stroke-width="3.33" stroke="#3a7cc3"></path><path d="M85 330 a5 5 0 1 0 10 0 a5 5 0 1 0 -10 0zM85 390 a5 5 0 1 0 10 0 a5 5 0 1 0 -10 0z" fill="#3a7cc3"></path><path d="M90 150L110 150L130 130" stroke-width="3.33" stroke="#3a7cc3"></path><path d="M85 150 a5 5 0 1 0 10 0 a5 5 0 1 0 -10 0zM125 130 a5 5 0 1 0 10 0 a5 5 0 1 0 -10 0z" fill="#3a7cc3"></path><path d="M1390 550L1390 510" stroke-width="3.33" stroke="#3a7cc3"></path><path d="M1385 550 a5 5 0 1 0 10 0 a5 5 0 1 0 -10 0zM1385 510 a5 5 0 1 0 10 0 a5 5 0 1 0 -10 0z" fill="#3a7cc3"></path><path d="M1110 10L1130 30L1150 30L1170 10" stroke-width="3.33" stroke="#3a7cc3"></path><path d="M1105 10 a5 5 0 1 0 10 0 a5 5 0 1 0 -10 0zM1165 10 a5 5 0 1 0 10 0 a5 5 0 1 0 -10 0z" fill="#3a7cc3"></path><path d="M550 90L570 70L570 50" stroke-width="3.33" stroke="#3a7cc3"></path><path d="M545 90 a5 5 0 1 0 10 0 a5 5 0 1 0 -10 0zM565 50 a5 5 0 1 0 10 0 a5 5 0 1 0 -10 0z" fill="#3a7cc3"></path><path d="M1110 90L1150 90" stroke-width="3.33" stroke="#3a7cc3"></path><path d="M1105 90 a5 5 0 1 0 10 0 a5 5 0 1 0 -10 0zM1145 90 a5 5 0 1 0 10 0 a5 5 0 1 0 -10 0z" fill="#3a7cc3"></path><path d="M810 510L790 490L770 490" stroke-width="3.33" stroke="#3a7cc3"></path><path d="M805 510 a5 5 0 1 0 10 0 a5 5 0 1 0 -10 0zM765 490 a5 5 0 1 0 10 0 a5 5 0 1 0 -10 0z" fill="#3a7cc3"></path><path d="M50 530L50 570" stroke-width="3.33" stroke="#3a7cc3"></path><path d="M45 530 a5 5 0 1 0 10 0 a5 5 0 1 0 -10 0zM45 570 a5 5 0 1 0 10 0 a5 5 0 1 0 -10 0z" fill="#3a7cc3"></path><path d="M490 170L510 170L530 190L530 210" stroke-width="3.33" stroke="#3a7cc3"></path><path d="M485 170 a5 5 0 1 0 10 0 a5 5 0 1 0 -10 0zM525 210 a5 5 0 1 0 10 0 a5 5 0 1 0 -10 0z" fill="#3a7cc3"></path><path d="M430 130L470 130L490 110" stroke-width="3.33" stroke="#3a7cc3"></path><path d="M425 130 a5 5 0 1 0 10 0 a5 5 0 1 0 -10 0zM485 110 a5 5 0 1 0 10 0 a5 5 0 1 0 -10 0z" fill="#3a7cc3"></path><path d="M1390 170L1390 130" stroke-width="3.33" stroke="#3a7cc3"></path><path d="M1385 170 a5 5 0 1 0 10 0 a5 5 0 1 0 -10 0zM1385 130 a5 5 0 1 0 10 0 a5 5 0 1 0 -10 0z" fill="#3a7cc3"></path><path d="M570 650L530 650" stroke-width="3.33" stroke="#3a7cc3"></path><path d="M565 650 a5 5 0 1 0 10 0 a5 5 0 1 0 -10 0zM525 650 a5 5 0 1 0 10 0 a5 5 0 1 0 -10 0z" fill="#3a7cc3"></path><path d="M1070 450L1130 450" stroke-width="3.33" stroke="#3a7cc3"></path><path d="M1065 450 a5 5 0 1 0 10 0 a5 5 0 1 0 -10 0zM1125 450 a5 5 0 1 0 10 0 a5 5 0 1 0 -10 0z" fill="#3a7cc3"></path><path d="M350 530L350 570L410 630" stroke-width="3.33" stroke="#3a7cc3"></path><path d="M345 530 a5 5 0 1 0 10 0 a5 5 0 1 0 -10 0zM405 630 a5 5 0 1 0 10 0 a5 5 0 1 0 -10 0z" fill="#3a7cc3"></path><path d="M890 210L930 250" stroke-width="3.33" stroke="#3a7cc3"></path><path d="M885 210 a5 5 0 1 0 10 0 a5 5 0 1 0 -10 0zM925 250 a5 5 0 1 0 10 0 a5 5 0 1 0 -10 0z" fill="#3a7cc3"></path><path d="M470 490L490 470L510 470L530 490L530 530" stroke-width="3.33" stroke="#3a7cc3"></path><path d="M465 490 a5 5 0 1 0 10 0 a5 5 0 1 0 -10 0zM525 530 a5 5 0 1 0 10 0 a5 5 0 1 0 -10 0z" fill="#3a7cc3"></path><path d="M1110 350L1050 290L1050 270" stroke-width="3.33" stroke="#3a7cc3"></path><path d="M1105 350 a5 5 0 1 0 10 0 a5 5 0 1 0 -10 0zM1045 270 a5 5 0 1 0 10 0 a5 5 0 1 0 -10 0z" fill="#3a7cc3"></path><path d="M470 410L470 450" stroke-width="3.33" stroke="#3a7cc3"></path><path d="M465 410 a5 5 0 1 0 10 0 a5 5 0 1 0 -10 0zM465 450 a5 5 0 1 0 10 0 a5 5 0 1 0 -10 0z" fill="#3a7cc3"></path><path d="M50 610L10 610" stroke-width="3.33" stroke="#3a7cc3"></path><path d="M45 610 a5 5 0 1 0 10 0 a5 5 0 1 0 -10 0zM5 610 a5 5 0 1 0 10 0 a5 5 0 1 0 -10 0z" fill="#3a7cc3"></path><path d="M1370 250L1330 250L1310 230L1270 230L1230 270L1230 290" stroke-width="3.33" stroke="#3a7cc3"></path><path d="M1365 250 a5 5 0 1 0 10 0 a5 5 0 1 0 -10 0zM1225 290 a5 5 0 1 0 10 0 a5 5 0 1 0 -10 0z" fill="#3a7cc3"></path><path d="M830 650L810 670L790 670" stroke-width="3.33" stroke="#3a7cc3"></path><path d="M825 650 a5 5 0 1 0 10 0 a5 5 0 1 0 -10 0zM785 670 a5 5 0 1 0 10 0 a5 5 0 1 0 -10 0z" fill="#3a7cc3"></path><path d="M130 250L170 250" stroke-width="3.33" stroke="#3a7cc3"></path><path d="M125 250 a5 5 0 1 0 10 0 a5 5 0 1 0 -10 0zM165 250 a5 5 0 1 0 10 0 a5 5 0 1 0 -10 0z" fill="#3a7cc3"></path><path d="M1030 610L990 610" stroke-width="3.33" stroke="#3a7cc3"></path><path d="M1025 610 a5 5 0 1 0 10 0 a5 5 0 1 0 -10 0zM985 610 a5 5 0 1 0 10 0 a5 5 0 1 0 -10 0z" fill="#3a7cc3"></path><path d="M470 530L490 510L510 510" stroke-width="3.33" stroke="#3a7cc3"></path><path d="M465 530 a5 5 0 1 0 10 0 a5 5 0 1 0 -10 0zM505 510 a5 5 0 1 0 10 0 a5 5 0 1 0 -10 0z" fill="#3a7cc3"></path><path d="M850 570L830 590L830 610" stroke-width="3.33" stroke="#3a7cc3"></path><path d="M845 570 a5 5 0 1 0 10 0 a5 5 0 1 0 -10 0zM825 610 a5 5 0 1 0 10 0 a5 5 0 1 0 -10 0z" fill="#3a7cc3"></path><path d="M410 310L410 350" stroke-width="3.33" stroke="#3a7cc3"></path><path d="M405 310 a5 5 0 1 0 10 0 a5 5 0 1 0 -10 0zM405 350 a5 5 0 1 0 10 0 a5 5 0 1 0 -10 0z" fill="#3a7cc3"></path><path d="M1090 650L1150 650" stroke-width="3.33" stroke="#3a7cc3"></path><path d="M1085 650 a5 5 0 1 0 10 0 a5 5 0 1 0 -10 0zM1145 650 a5 5 0 1 0 10 0 a5 5 0 1 0 -10 0z" fill="#3a7cc3"></path></g></g><defs><mask id="SvgjsMask1100"><rect width="1440" height="720" fill="#ffffff"></rect></mask><linearGradient x1="12.5%" y1="-25%" x2="87.5%" y2="125%" gradientUnits="userSpaceOnUse" id="SvgjsLinearGradient1101"><stop stop-color="#0e2a47" offset="0"></stop><stop stop-color="rgba(15, 17, 20, 1)" offset="1"></stop></linearGradient><mask id="SvgjsMask1102"><rect width="1440" height="720" fill="white"></rect><path d="M127.5 610 a2.5 2.5 0 1 0 5 0 a2.5 2.5 0 1 0 -5 0zM7.5 230 a2.5 2.5 0 1 0 5 0 a2.5 2.5 0 1 0 -5 0z" fill="black"></path><path d="M27.5 570 a2.5 2.5 0 1 0 5 0 a2.5 2.5 0 1 0 -5 0zM7.5 450 a2.5 2.5 0 1 0 5 0 a2.5 2.5 0 1 0 -5 0z" fill="black"></path><path d="M1287.5 170 a2.5 2.5 0 1 0 5 0 a2.5 2.5 0 1 0 -5 0zM1047.5 10 a2.5 2.5 0 1 0 5 0 a2.5 2.5 0 1 0 -5 0z" fill="black"></path><path d="M807.5 170 a2.5 2.5 0 1 0 5 0 a2.5 2.5 0 1 0 -5 0zM1127.5 490 a2.5 2.5 0 1 0 5 0 a2.5 2.5 0 1 0 -5 0z" fill="black"></path><path d="M67.5 610 a2.5 2.5 0 1 0 5 0 a2.5 2.5 0 1 0 -5 0zM7.5 590 a2.5 2.5 0 1 0 5 0 a2.5 2.5 0 1 0 -5 0z" fill="black"></path><path d="M167.5 230 a2.5 2.5 0 1 0 5 0 a2.5 2.5 0 1 0 -5 0zM67.5 10 a2.5 2.5 0 1 0 5 0 a2.5 2.5 0 1 0 -5 0z" fill="black"></path><path d="M767.5 290 a2.5 2.5 0 1 0 5 0 a2.5 2.5 0 1 0 -5 0zM527.5 10 a2.5 2.5 0 1 0 5 0 a2.5 2.5 0 1 0 -5 0z" fill="black"></path><path d="M707.5 290 a2.5 2.5 0 1 0 5 0 a2.5 2.5 0 1 0 -5 0zM507.5 30 a2.5 2.5 0 1 0 5 0 a2.5 2.5 0 1 0 -5 0z" fill="black"></path><path d="M1387.5 90 a2.5 2.5 0 1 0 5 0 a2.5 2.5 0 1 0 -5 0zM1427.5 90 a2.5 2.5 0 1 0 5 0 a2.5 2.5 0 1 0 -5 0z" fill="black"></path><path d="M27.5 30 a2.5 2.5 0 1 0 5 0 a2.5 2.5 0 1 0 -5 0zM247.5 410 a2.5 2.5 0 1 0 5 0 a2.5 2.5 0 1 0 -5 0z" fill="black"></path><path d="M367.5 370 a2.5 2.5 0 1 0 5 0 a2.5 2.5 0 1 0 -5 0zM387.5 650 a2.5 2.5 0 1 0 5 0 a2.5 2.5 0 1 0 -5 0z" fill="black"></path><path d="M1267.5 650 a2.5 2.5 0 1 0 5 0 a2.5 2.5 0 1 0 -5 0zM887.5 370 a2.5 2.5 0 1 0 5 0 a2.5 2.5 0 1 0 -5 0z" fill="black"></path><path d="M647.5 570 a2.5 2.5 0 1 0 5 0 a2.5 2.5 0 1 0 -5 0zM387.5 390 a2.5 2.5 0 1 0 5 0 a2.5 2.5 0 1 0 -5 0z" fill="black"></path><path d="M127.5 330 a2.5 2.5 0 1 0 5 0 a2.5 2.5 0 1 0 -5 0zM7.5 10 a2.5 2.5 0 1 0 5 0 a2.5 2.5 0 1 0 -5 0z" fill="black"></path><path d="M1247.5 110 a2.5 2.5 0 1 0 5 0 a2.5 2.5 0 1 0 -5 0zM1107.5 110 a2.5 2.5 0 1 0 5 0 a2.5 2.5 0 1 0 -5 0z" fill="black"></path><path d="M1407.5 250 a2.5 2.5 0 1 0 5 0 a2.5 2.5 0 1 0 -5 0zM1427.5 110 a2.5 2.5 0 1 0 5 0 a2.5 2.5 0 1 0 -5 0z" fill="black"></path><path d="M767.5 270 a2.5 2.5 0 1 0 5 0 a2.5 2.5 0 1 0 -5 0zM807.5 210 a2.5 2.5 0 1 0 5 0 a2.5 2.5 0 1 0 -5 0z" fill="black"></path><path d="M947.5 190 a2.5 2.5 0 1 0 5 0 a2.5 2.5 0 1 0 -5 0zM1327.5 430 a2.5 2.5 0 1 0 5 0 a2.5 2.5 0 1 0 -5 0z" fill="black"></path><path d="M147.5 150 a2.5 2.5 0 1 0 5 0 a2.5 2.5 0 1 0 -5 0zM507.5 10 a2.5 2.5 0 1 0 5 0 a2.5 2.5 0 1 0 -5 0z" fill="black"></path><path d="M647.5 230 a2.5 2.5 0 1 0 5 0 a2.5 2.5 0 1 0 -5 0zM727.5 150 a2.5 2.5 0 1 0 5 0 a2.5 2.5 0 1 0 -5 0z" fill="black"></path><path d="M647.5 250 a2.5 2.5 0 1 0 5 0 a2.5 2.5 0 1 0 -5 0zM567.5 590 a2.5 2.5 0 1 0 5 0 a2.5 2.5 0 1 0 -5 0z" fill="black"></path><path d="M1007.5 70 a2.5 2.5 0 1 0 5 0 a2.5 2.5 0 1 0 -5 0zM647.5 10 a2.5 2.5 0 1 0 5 0 a2.5 2.5 0 1 0 -5 0z" fill="black"></path><path d="M1007.5 50 a2.5 2.5 0 1 0 5 0 a2.5 2.5 0 1 0 -5 0zM1027.5 10 a2.5 2.5 0 1 0 5 0 a2.5 2.5 0 1 0 -5 0z" fill="black"></path><path d="M207.5 590 a2.5 2.5 0 1 0 5 0 a2.5 2.5 0 1 0 -5 0zM587.5 630 a2.5 2.5 0 1 0 5 0 a2.5 2.5 0 1 0 -5 0z" fill="black"></path><path d="M227.5 710 a2.5 2.5 0 1 0 5 0 a2.5 2.5 0 1 0 -5 0zM7.5 710 a2.5 2.5 0 1 0 5 0 a2.5 2.5 0 1 0 -5 0z" fill="black"></path><path d="M1287.5 110 a2.5 2.5 0 1 0 5 0 a2.5 2.5 0 1 0 -5 0zM1107.5 150 a2.5 2.5 0 1 0 5 0 a2.5 2.5 0 1 0 -5 0z" fill="black"></path><path d="M1227.5 570 a2.5 2.5 0 1 0 5 0 a2.5 2.5 0 1 0 -5 0zM1427.5 710 a2.5 2.5 0 1 0 5 0 a2.5 2.5 0 1 0 -5 0z" fill="black"></path><path d="M1007.5 150 a2.5 2.5 0 1 0 5 0 a2.5 2.5 0 1 0 -5 0zM1067.5 150 a2.5 2.5 0 1 0 5 0 a2.5 2.5 0 1 0 -5 0z" fill="black"></path><path d="M987.5 250 a2.5 2.5 0 1 0 5 0 a2.5 2.5 0 1 0 -5 0zM1287.5 410 a2.5 2.5 0 1 0 5 0 a2.5 2.5 0 1 0 -5 0z" fill="black"></path><path d="M947.5 430 a2.5 2.5 0 1 0 5 0 a2.5 2.5 0 1 0 -5 0zM667.5 470 a2.5 2.5 0 1 0 5 0 a2.5 2.5 0 1 0 -5 0z" fill="black"></path><path d="M1387.5 190 a2.5 2.5 0 1 0 5 0 a2.5 2.5 0 1 0 -5 0zM1307.5 570 a2.5 2.5 0 1 0 5 0 a2.5 2.5 0 1 0 -5 0z" fill="black"></path><path d="M887.5 410 a2.5 2.5 0 1 0 5 0 a2.5 2.5 0 1 0 -5 0zM927.5 410 a2.5 2.5 0 1 0 5 0 a2.5 2.5 0 1 0 -5 0z" fill="black"></path><path d="M887.5 390 a2.5 2.5 0 1 0 5 0 a2.5 2.5 0 1 0 -5 0zM787.5 290 a2.5 2.5 0 1 0 5 0 a2.5 2.5 0 1 0 -5 0z" fill="black"></path><path d="M887.5 190 a2.5 2.5 0 1 0 5 0 a2.5 2.5 0 1 0 -5 0zM1067.5 30 a2.5 2.5 0 1 0 5 0 a2.5 2.5 0 1 0 -5 0z" fill="black"></path><path d="M87.5 410 a2.5 2.5 0 1 0 5 0 a2.5 2.5 0 1 0 -5 0zM47.5 450 a2.5 2.5 0 1 0 5 0 a2.5 2.5 0 1 0 -5 0z" fill="black"></path><path d="M907.5 170 a2.5 2.5 0 1 0 5 0 a2.5 2.5 0 1 0 -5 0zM667.5 30 a2.5 2.5 0 1 0 5 0 a2.5 2.5 0 1 0 -5 0z" fill="black"></path><path d="M727.5 190 a2.5 2.5 0 1 0 5 0 a2.5 2.5 0 1 0 -5 0zM767.5 190 a2.5 2.5 0 1 0 5 0 a2.5 2.5 0 1 0 -5 0z" fill="black"></path><path d="M327.5 230 a2.5 2.5 0 1 0 5 0 a2.5 2.5 0 1 0 -5 0zM247.5 70 a2.5 2.5 0 1 0 5 0 a2.5 2.5 0 1 0 -5 0z" fill="black"></path><path d="M1387.5 450 a2.5 2.5 0 1 0 5 0 a2.5 2.5 0 1 0 -5 0zM1187.5 270 a2.5 2.5 0 1 0 5 0 a2.5 2.5 0 1 0 -5 0z" fill="black"></path><path d="M727.5 250 a2.5 2.5 0 1 0 5 0 a2.5 2.5 0 1 0 -5 0zM767.5 210 a2.5 2.5 0 1 0 5 0 a2.5 2.5 0 1 0 -5 0z" fill="black"></path><path d="M467.5 70 a2.5 2.5 0 1 0 5 0 a2.5 2.5 0 1 0 -5 0zM387.5 230 a2.5 2.5 0 1 0 5 0 a2.5 2.5 0 1 0 -5 0z" fill="black"></path><path d="M867.5 650 a2.5 2.5 0 1 0 5 0 a2.5 2.5 0 1 0 -5 0zM787.5 610 a2.5 2.5 0 1 0 5 0 a2.5 2.5 0 1 0 -5 0z" fill="black"></path><path d="M127.5 690 a2.5 2.5 0 1 0 5 0 a2.5 2.5 0 1 0 -5 0zM147.5 330 a2.5 2.5 0 1 0 5 0 a2.5 2.5 0 1 0 -5 0z" fill="black"></path><path d="M27.5 230 a2.5 2.5 0 1 0 5 0 a2.5 2.5 0 1 0 -5 0zM27.5 430 a2.5 2.5 0 1 0 5 0 a2.5 2.5 0 1 0 -5 0z" fill="black"></path><path d="M807.5 410 a2.5 2.5 0 1 0 5 0 a2.5 2.5 0 1 0 -5 0zM927.5 430 a2.5 2.5 0 1 0 5 0 a2.5 2.5 0 1 0 -5 0z" fill="black"></path><path d="M1227.5 90 a2.5 2.5 0 1 0 5 0 a2.5 2.5 0 1 0 -5 0zM1427.5 10 a2.5 2.5 0 1 0 5 0 a2.5 2.5 0 1 0 -5 0z" fill="black"></path><path d="M927.5 690 a2.5 2.5 0 1 0 5 0 a2.5 2.5 0 1 0 -5 0zM1187.5 670 a2.5 2.5 0 1 0 5 0 a2.5 2.5 0 1 0 -5 0z" fill="black"></path><path d="M487.5 670 a2.5 2.5 0 1 0 5 0 a2.5 2.5 0 1 0 -5 0zM867.5 710 a2.5 2.5 0 1 0 5 0 a2.5 2.5 0 1 0 -5 0z" fill="black"></path><path d="M1387.5 290 a2.5 2.5 0 1 0 5 0 a2.5 2.5 0 1 0 -5 0zM1267.5 350 a2.5 2.5 0 1 0 5 0 a2.5 2.5 0 1 0 -5 0z" fill="black"></path><path d="M567.5 390 a2.5 2.5 0 1 0 5 0 a2.5 2.5 0 1 0 -5 0zM647.5 70 a2.5 2.5 0 1 0 5 0 a2.5 2.5 0 1 0 -5 0z" fill="black"></path><path d="M247.5 510 a2.5 2.5 0 1 0 5 0 a2.5 2.5 0 1 0 -5 0zM407.5 670 a2.5 2.5 0 1 0 5 0 a2.5 2.5 0 1 0 -5 0z" fill="black"></path><path d="M287.5 530 a2.5 2.5 0 1 0 5 0 a2.5 2.5 0 1 0 -5 0zM427.5 650 a2.5 2.5 0 1 0 5 0 a2.5 2.5 0 1 0 -5 0z" fill="black"></path><path d="M67.5 670 a2.5 2.5 0 1 0 5 0 a2.5 2.5 0 1 0 -5 0zM127.5 670 a2.5 2.5 0 1 0 5 0 a2.5 2.5 0 1 0 -5 0z" fill="black"></path><path d="M967.5 410 a2.5 2.5 0 1 0 5 0 a2.5 2.5 0 1 0 -5 0zM807.5 270 a2.5 2.5 0 1 0 5 0 a2.5 2.5 0 1 0 -5 0z" fill="black"></path><path d="M567.5 90 a2.5 2.5 0 1 0 5 0 a2.5 2.5 0 1 0 -5 0zM627.5 50 a2.5 2.5 0 1 0 5 0 a2.5 2.5 0 1 0 -5 0z" fill="black"></path><path d="M327.5 610 a2.5 2.5 0 1 0 5 0 a2.5 2.5 0 1 0 -5 0zM367.5 690 a2.5 2.5 0 1 0 5 0 a2.5 2.5 0 1 0 -5 0z" fill="black"></path><path d="M867.5 390 a2.5 2.5 0 1 0 5 0 a2.5 2.5 0 1 0 -5 0zM827.5 410 a2.5 2.5 0 1 0 5 0 a2.5 2.5 0 1 0 -5 0z" fill="black"></path><path d="M1027.5 110 a2.5 2.5 0 1 0 5 0 a2.5 2.5 0 1 0 -5 0zM1067.5 130 a2.5 2.5 0 1 0 5 0 a2.5 2.5 0 1 0 -5 0z" fill="black"></path><path d="M1007.5 670 a2.5 2.5 0 1 0 5 0 a2.5 2.5 0 1 0 -5 0zM1027.5 510 a2.5 2.5 0 1 0 5 0 a2.5 2.5 0 1 0 -5 0z" fill="black"></path><path d="M107.5 650 a2.5 2.5 0 1 0 5 0 a2.5 2.5 0 1 0 -5 0zM7.5 650 a2.5 2.5 0 1 0 5 0 a2.5 2.5 0 1 0 -5 0z" fill="black"></path><path d="M187.5 230 a2.5 2.5 0 1 0 5 0 a2.5 2.5 0 1 0 -5 0zM227.5 90 a2.5 2.5 0 1 0 5 0 a2.5 2.5 0 1 0 -5 0z" fill="black"></path><path d="M567.5 430 a2.5 2.5 0 1 0 5 0 a2.5 2.5 0 1 0 -5 0zM607.5 130 a2.5 2.5 0 1 0 5 0 a2.5 2.5 0 1 0 -5 0z" fill="black"></path><path d="M1067.5 670 a2.5 2.5 0 1 0 5 0 a2.5 2.5 0 1 0 -5 0zM1167.5 670 a2.5 2.5 0 1 0 5 0 a2.5 2.5 0 1 0 -5 0z" fill="black"></path><path d="M1107.5 370 a2.5 2.5 0 1 0 5 0 a2.5 2.5 0 1 0 -5 0zM1007.5 210 a2.5 2.5 0 1 0 5 0 a2.5 2.5 0 1 0 -5 0z" fill="black"></path><path d="M927.5 550 a2.5 2.5 0 1 0 5 0 a2.5 2.5 0 1 0 -5 0zM767.5 690 a2.5 2.5 0 1 0 5 0 a2.5 2.5 0 1 0 -5 0z" fill="black"></path><path d="M167.5 590 a2.5 2.5 0 1 0 5 0 a2.5 2.5 0 1 0 -5 0zM307.5 710 a2.5 2.5 0 1 0 5 0 a2.5 2.5 0 1 0 -5 0z" fill="black"></path><path d="M1167.5 710 a2.5 2.5 0 1 0 5 0 a2.5 2.5 0 1 0 -5 0zM1367.5 710 a2.5 2.5 0 1 0 5 0 a2.5 2.5 0 1 0 -5 0z" fill="black"></path><path d="M547.5 570 a2.5 2.5 0 1 0 5 0 a2.5 2.5 0 1 0 -5 0zM627.5 390 a2.5 2.5 0 1 0 5 0 a2.5 2.5 0 1 0 -5 0z" fill="black"></path><path d="M467.5 290 a2.5 2.5 0 1 0 5 0 a2.5 2.5 0 1 0 -5 0zM547.5 590 a2.5 2.5 0 1 0 5 0 a2.5 2.5 0 1 0 -5 0z" fill="black"></path><path d="M787.5 330 a2.5 2.5 0 1 0 5 0 a2.5 2.5 0 1 0 -5 0zM667.5 450 a2.5 2.5 0 1 0 5 0 a2.5 2.5 0 1 0 -5 0z" fill="black"></path><path d="M587.5 270 a2.5 2.5 0 1 0 5 0 a2.5 2.5 0 1 0 -5 0zM587.5 390 a2.5 2.5 0 1 0 5 0 a2.5 2.5 0 1 0 -5 0z" fill="black"></path><path d="M727.5 50 a2.5 2.5 0 1 0 5 0 a2.5 2.5 0 1 0 -5 0zM687.5 30 a2.5 2.5 0 1 0 5 0 a2.5 2.5 0 1 0 -5 0z" fill="black"></path><path d="M447.5 190 a2.5 2.5 0 1 0 5 0 a2.5 2.5 0 1 0 -5 0zM287.5 90 a2.5 2.5 0 1 0 5 0 a2.5 2.5 0 1 0 -5 0z" fill="black"></path><path d="M307.5 590 a2.5 2.5 0 1 0 5 0 a2.5 2.5 0 1 0 -5 0zM347.5 690 a2.5 2.5 0 1 0 5 0 a2.5 2.5 0 1 0 -5 0z" fill="black"></path><path d="M1147.5 350 a2.5 2.5 0 1 0 5 0 a2.5 2.5 0 1 0 -5 0zM1067.5 390 a2.5 2.5 0 1 0 5 0 a2.5 2.5 0 1 0 -5 0z" fill="black"></path><path d="M787.5 550 a2.5 2.5 0 1 0 5 0 a2.5 2.5 0 1 0 -5 0zM667.5 490 a2.5 2.5 0 1 0 5 0 a2.5 2.5 0 1 0 -5 0z" fill="black"></path><path d="M767.5 410 a2.5 2.5 0 1 0 5 0 a2.5 2.5 0 1 0 -5 0zM687.5 450 a2.5 2.5 0 1 0 5 0 a2.5 2.5 0 1 0 -5 0z" fill="black"></path><path d="M247.5 30 a2.5 2.5 0 1 0 5 0 a2.5 2.5 0 1 0 -5 0zM87.5 10 a2.5 2.5 0 1 0 5 0 a2.5 2.5 0 1 0 -5 0z" fill="black"></path><path d="M207.5 330 a2.5 2.5 0 1 0 5 0 a2.5 2.5 0 1 0 -5 0zM107.5 230 a2.5 2.5 0 1 0 5 0 a2.5 2.5 0 1 0 -5 0z" fill="black"></path><path d="M1007.5 630 a2.5 2.5 0 1 0 5 0 a2.5 2.5 0 1 0 -5 0zM1167.5 650 a2.5 2.5 0 1 0 5 0 a2.5 2.5 0 1 0 -5 0z" fill="black"></path><path d="M447.5 330 a2.5 2.5 0 1 0 5 0 a2.5 2.5 0 1 0 -5 0zM607.5 550 a2.5 2.5 0 1 0 5 0 a2.5 2.5 0 1 0 -5 0z" fill="black"></path><path d="M267.5 490 a2.5 2.5 0 1 0 5 0 a2.5 2.5 0 1 0 -5 0zM347.5 490 a2.5 2.5 0 1 0 5 0 a2.5 2.5 0 1 0 -5 0z" fill="black"></path><path d="M1107.5 590 a2.5 2.5 0 1 0 5 0 a2.5 2.5 0 1 0 -5 0zM987.5 630 a2.5 2.5 0 1 0 5 0 a2.5 2.5 0 1 0 -5 0z" fill="black"></path><path d="M1267.5 110 a2.5 2.5 0 1 0 5 0 a2.5 2.5 0 1 0 -5 0zM1107.5 130 a2.5 2.5 0 1 0 5 0 a2.5 2.5 0 1 0 -5 0z" fill="black"></path><path d="M607.5 670 a2.5 2.5 0 1 0 5 0 a2.5 2.5 0 1 0 -5 0zM847.5 630 a2.5 2.5 0 1 0 5 0 a2.5 2.5 0 1 0 -5 0z" fill="black"></path><path d="M967.5 90 a2.5 2.5 0 1 0 5 0 a2.5 2.5 0 1 0 -5 0zM1007.5 90 a2.5 2.5 0 1 0 5 0 a2.5 2.5 0 1 0 -5 0z" fill="black"></path><path d="M207.5 230 a2.5 2.5 0 1 0 5 0 a2.5 2.5 0 1 0 -5 0zM487.5 250 a2.5 2.5 0 1 0 5 0 a2.5 2.5 0 1 0 -5 0z" fill="black"></path><path d="M207.5 70 a2.5 2.5 0 1 0 5 0 a2.5 2.5 0 1 0 -5 0zM167.5 210 a2.5 2.5 0 1 0 5 0 a2.5 2.5 0 1 0 -5 0z" fill="black"></path><path d="M127.5 70 a2.5 2.5 0 1 0 5 0 a2.5 2.5 0 1 0 -5 0zM87.5 70 a2.5 2.5 0 1 0 5 0 a2.5 2.5 0 1 0 -5 0z" fill="black"></path><path d="M1387.5 670 a2.5 2.5 0 1 0 5 0 a2.5 2.5 0 1 0 -5 0zM1427.5 470 a2.5 2.5 0 1 0 5 0 a2.5 2.5 0 1 0 -5 0z" fill="black"></path><path d="M467.5 210 a2.5 2.5 0 1 0 5 0 a2.5 2.5 0 1 0 -5 0zM547.5 250 a2.5 2.5 0 1 0 5 0 a2.5 2.5 0 1 0 -5 0z" fill="black"></path><path d="M647.5 630 a2.5 2.5 0 1 0 5 0 a2.5 2.5 0 1 0 -5 0zM647.5 670 a2.5 2.5 0 1 0 5 0 a2.5 2.5 0 1 0 -5 0z" fill="black"></path><path d="M367.5 270 a2.5 2.5 0 1 0 5 0 a2.5 2.5 0 1 0 -5 0zM187.5 290 a2.5 2.5 0 1 0 5 0 a2.5 2.5 0 1 0 -5 0z" fill="black"></path><path d="M487.5 530 a2.5 2.5 0 1 0 5 0 a2.5 2.5 0 1 0 -5 0zM507.5 570 a2.5 2.5 0 1 0 5 0 a2.5 2.5 0 1 0 -5 0z" fill="black"></path><path d="M107.5 630 a2.5 2.5 0 1 0 5 0 a2.5 2.5 0 1 0 -5 0zM47.5 490 a2.5 2.5 0 1 0 5 0 a2.5 2.5 0 1 0 -5 0z" fill="black"></path><path d="M307.5 350 a2.5 2.5 0 1 0 5 0 a2.5 2.5 0 1 0 -5 0zM347.5 470 a2.5 2.5 0 1 0 5 0 a2.5 2.5 0 1 0 -5 0z" fill="black"></path><path d="M347.5 10 a2.5 2.5 0 1 0 5 0 a2.5 2.5 0 1 0 -5 0zM407.5 10 a2.5 2.5 0 1 0 5 0 a2.5 2.5 0 1 0 -5 0z" fill="black"></path><path d="M247.5 530 a2.5 2.5 0 1 0 5 0 a2.5 2.5 0 1 0 -5 0zM307.5 570 a2.5 2.5 0 1 0 5 0 a2.5 2.5 0 1 0 -5 0z" fill="black"></path><path d="M487.5 190 a2.5 2.5 0 1 0 5 0 a2.5 2.5 0 1 0 -5 0zM547.5 230 a2.5 2.5 0 1 0 5 0 a2.5 2.5 0 1 0 -5 0z" fill="black"></path><path d="M1247.5 510 a2.5 2.5 0 1 0 5 0 a2.5 2.5 0 1 0 -5 0zM1067.5 510 a2.5 2.5 0 1 0 5 0 a2.5 2.5 0 1 0 -5 0z" fill="black"></path><path d="M1247.5 190 a2.5 2.5 0 1 0 5 0 a2.5 2.5 0 1 0 -5 0zM1127.5 210 a2.5 2.5 0 1 0 5 0 a2.5 2.5 0 1 0 -5 0z" fill="black"></path><path d="M1287.5 10 a2.5 2.5 0 1 0 5 0 a2.5 2.5 0 1 0 -5 0zM1187.5 90 a2.5 2.5 0 1 0 5 0 a2.5 2.5 0 1 0 -5 0z" fill="black"></path><path d="M787.5 510 a2.5 2.5 0 1 0 5 0 a2.5 2.5 0 1 0 -5 0zM747.5 490 a2.5 2.5 0 1 0 5 0 a2.5 2.5 0 1 0 -5 0z" fill="black"></path><path d="M1207.5 710 a2.5 2.5 0 1 0 5 0 a2.5 2.5 0 1 0 -5 0zM1287.5 710 a2.5 2.5 0 1 0 5 0 a2.5 2.5 0 1 0 -5 0z" fill="black"></path><path d="M1187.5 310 a2.5 2.5 0 1 0 5 0 a2.5 2.5 0 1 0 -5 0zM1127.5 390 a2.5 2.5 0 1 0 5 0 a2.5 2.5 0 1 0 -5 0z" fill="black"></path><path d="M1387.5 350 a2.5 2.5 0 1 0 5 0 a2.5 2.5 0 1 0 -5 0zM1387.5 310 a2.5 2.5 0 1 0 5 0 a2.5 2.5 0 1 0 -5 0z" fill="black"></path><path d="M547.5 450 a2.5 2.5 0 1 0 5 0 a2.5 2.5 0 1 0 -5 0zM547.5 550 a2.5 2.5 0 1 0 5 0 a2.5 2.5 0 1 0 -5 0z" fill="black"></path><path d="M1247.5 610 a2.5 2.5 0 1 0 5 0 a2.5 2.5 0 1 0 -5 0zM1247.5 650 a2.5 2.5 0 1 0 5 0 a2.5 2.5 0 1 0 -5 0z" fill="black"></path><path d="M467.5 190 a2.5 2.5 0 1 0 5 0 a2.5 2.5 0 1 0 -5 0zM527.5 50 a2.5 2.5 0 1 0 5 0 a2.5 2.5 0 1 0 -5 0z" fill="black"></path><path d="M167.5 470 a2.5 2.5 0 1 0 5 0 a2.5 2.5 0 1 0 -5 0zM267.5 670 a2.5 2.5 0 1 0 5 0 a2.5 2.5 0 1 0 -5 0z" fill="black"></path><path d="M667.5 610 a2.5 2.5 0 1 0 5 0 a2.5 2.5 0 1 0 -5 0zM667.5 670 a2.5 2.5 0 1 0 5 0 a2.5 2.5 0 1 0 -5 0z" fill="black"></path><path d="M387.5 330 a2.5 2.5 0 1 0 5 0 a2.5 2.5 0 1 0 -5 0zM407.5 470 a2.5 2.5 0 1 0 5 0 a2.5 2.5 0 1 0 -5 0z" fill="black"></path><path d="M967.5 210 a2.5 2.5 0 1 0 5 0 a2.5 2.5 0 1 0 -5 0zM967.5 310 a2.5 2.5 0 1 0 5 0 a2.5 2.5 0 1 0 -5 0z" fill="black"></path><path d="M767.5 130 a2.5 2.5 0 1 0 5 0 a2.5 2.5 0 1 0 -5 0zM887.5 130 a2.5 2.5 0 1 0 5 0 a2.5 2.5 0 1 0 -5 0z" fill="black"></path><path d="M1227.5 630 a2.5 2.5 0 1 0 5 0 a2.5 2.5 0 1 0 -5 0zM1207.5 530 a2.5 2.5 0 1 0 5 0 a2.5 2.5 0 1 0 -5 0z" fill="black"></path><path d="M547.5 410 a2.5 2.5 0 1 0 5 0 a2.5 2.5 0 1 0 -5 0zM547.5 270 a2.5 2.5 0 1 0 5 0 a2.5 2.5 0 1 0 -5 0z" fill="black"></path><path d="M1267.5 50 a2.5 2.5 0 1 0 5 0 a2.5 2.5 0 1 0 -5 0zM1407.5 10 a2.5 2.5 0 1 0 5 0 a2.5 2.5 0 1 0 -5 0z" fill="black"></path><path d="M47.5 130 a2.5 2.5 0 1 0 5 0 a2.5 2.5 0 1 0 -5 0zM47.5 10 a2.5 2.5 0 1 0 5 0 a2.5 2.5 0 1 0 -5 0z" fill="black"></path><path d="M107.5 30 a2.5 2.5 0 1 0 5 0 a2.5 2.5 0 1 0 -5 0zM167.5 90 a2.5 2.5 0 1 0 5 0 a2.5 2.5 0 1 0 -5 0z" fill="black"></path><path d="M1287.5 450 a2.5 2.5 0 1 0 5 0 a2.5 2.5 0 1 0 -5 0zM1367.5 670 a2.5 2.5 0 1 0 5 0 a2.5 2.5 0 1 0 -5 0z" fill="black"></path><path d="M107.5 370 a2.5 2.5 0 1 0 5 0 a2.5 2.5 0 1 0 -5 0zM127.5 530 a2.5 2.5 0 1 0 5 0 a2.5 2.5 0 1 0 -5 0z" fill="black"></path><path d="M227.5 330 a2.5 2.5 0 1 0 5 0 a2.5 2.5 0 1 0 -5 0zM327.5 470 a2.5 2.5 0 1 0 5 0 a2.5 2.5 0 1 0 -5 0z" fill="black"></path><path d="M1107.5 550 a2.5 2.5 0 1 0 5 0 a2.5 2.5 0 1 0 -5 0zM1227.5 650 a2.5 2.5 0 1 0 5 0 a2.5 2.5 0 1 0 -5 0z" fill="black"></path><path d="M1027.5 410 a2.5 2.5 0 1 0 5 0 a2.5 2.5 0 1 0 -5 0zM1147.5 430 a2.5 2.5 0 1 0 5 0 a2.5 2.5 0 1 0 -5 0z" fill="black"></path><path d="M1407.5 610 a2.5 2.5 0 1 0 5 0 a2.5 2.5 0 1 0 -5 0zM1307.5 590 a2.5 2.5 0 1 0 5 0 a2.5 2.5 0 1 0 -5 0z" fill="black"></path><path d="M1187.5 230 a2.5 2.5 0 1 0 5 0 a2.5 2.5 0 1 0 -5 0zM1147.5 190 a2.5 2.5 0 1 0 5 0 a2.5 2.5 0 1 0 -5 0z" fill="black"></path><path d="M347.5 110 a2.5 2.5 0 1 0 5 0 a2.5 2.5 0 1 0 -5 0zM287.5 110 a2.5 2.5 0 1 0 5 0 a2.5 2.5 0 1 0 -5 0z" fill="black"></path><path d="M287.5 390 a2.5 2.5 0 1 0 5 0 a2.5 2.5 0 1 0 -5 0zM247.5 330 a2.5 2.5 0 1 0 5 0 a2.5 2.5 0 1 0 -5 0z" fill="black"></path><path d="M667.5 150 a2.5 2.5 0 1 0 5 0 a2.5 2.5 0 1 0 -5 0zM647.5 210 a2.5 2.5 0 1 0 5 0 a2.5 2.5 0 1 0 -5 0z" fill="black"></path><path d="M1307.5 250 a2.5 2.5 0 1 0 5 0 a2.5 2.5 0 1 0 -5 0zM1247.5 310 a2.5 2.5 0 1 0 5 0 a2.5 2.5 0 1 0 -5 0z" fill="black"></path><path d="M1027.5 550 a2.5 2.5 0 1 0 5 0 a2.5 2.5 0 1 0 -5 0zM1067.5 610 a2.5 2.5 0 1 0 5 0 a2.5 2.5 0 1 0 -5 0z" fill="black"></path><path d="M487.5 430 a2.5 2.5 0 1 0 5 0 a2.5 2.5 0 1 0 -5 0zM527.5 430 a2.5 2.5 0 1 0 5 0 a2.5 2.5 0 1 0 -5 0z" fill="black"></path><path d="M347.5 150 a2.5 2.5 0 1 0 5 0 a2.5 2.5 0 1 0 -5 0zM347.5 210 a2.5 2.5 0 1 0 5 0 a2.5 2.5 0 1 0 -5 0z" fill="black"></path><path d="M327.5 130 a2.5 2.5 0 1 0 5 0 a2.5 2.5 0 1 0 -5 0zM367.5 250 a2.5 2.5 0 1 0 5 0 a2.5 2.5 0 1 0 -5 0z" fill="black"></path><path d="M1207.5 10 a2.5 2.5 0 1 0 5 0 a2.5 2.5 0 1 0 -5 0zM1107.5 70 a2.5 2.5 0 1 0 5 0 a2.5 2.5 0 1 0 -5 0z" fill="black"></path><path d="M207.5 630 a2.5 2.5 0 1 0 5 0 a2.5 2.5 0 1 0 -5 0zM247.5 670 a2.5 2.5 0 1 0 5 0 a2.5 2.5 0 1 0 -5 0z" fill="black"></path><path d="M547.5 170 a2.5 2.5 0 1 0 5 0 a2.5 2.5 0 1 0 -5 0zM507.5 130 a2.5 2.5 0 1 0 5 0 a2.5 2.5 0 1 0 -5 0z" fill="black"></path><path d="M1107.5 310 a2.5 2.5 0 1 0 5 0 a2.5 2.5 0 1 0 -5 0zM1027.5 210 a2.5 2.5 0 1 0 5 0 a2.5 2.5 0 1 0 -5 0z" fill="black"></path><path d="M587.5 190 a2.5 2.5 0 1 0 5 0 a2.5 2.5 0 1 0 -5 0zM607.5 310 a2.5 2.5 0 1 0 5 0 a2.5 2.5 0 1 0 -5 0z" fill="black"></path><path d="M867.5 270 a2.5 2.5 0 1 0 5 0 a2.5 2.5 0 1 0 -5 0zM847.5 230 a2.5 2.5 0 1 0 5 0 a2.5 2.5 0 1 0 -5 0z" fill="black"></path><path d="M447.5 30 a2.5 2.5 0 1 0 5 0 a2.5 2.5 0 1 0 -5 0zM407.5 50 a2.5 2.5 0 1 0 5 0 a2.5 2.5 0 1 0 -5 0z" fill="black"></path><path d="M107.5 690 a2.5 2.5 0 1 0 5 0 a2.5 2.5 0 1 0 -5 0zM7.5 690 a2.5 2.5 0 1 0 5 0 a2.5 2.5 0 1 0 -5 0z" fill="black"></path><path d="M927.5 330 a2.5 2.5 0 1 0 5 0 a2.5 2.5 0 1 0 -5 0zM867.5 290 a2.5 2.5 0 1 0 5 0 a2.5 2.5 0 1 0 -5 0z" fill="black"></path><path d="M167.5 30 a2.5 2.5 0 1 0 5 0 a2.5 2.5 0 1 0 -5 0zM227.5 30 a2.5 2.5 0 1 0 5 0 a2.5 2.5 0 1 0 -5 0z" fill="black"></path><path d="M1367.5 490 a2.5 2.5 0 1 0 5 0 a2.5 2.5 0 1 0 -5 0zM1167.5 430 a2.5 2.5 0 1 0 5 0 a2.5 2.5 0 1 0 -5 0z" fill="black"></path><path d="M687.5 610 a2.5 2.5 0 1 0 5 0 a2.5 2.5 0 1 0 -5 0zM687.5 670 a2.5 2.5 0 1 0 5 0 a2.5 2.5 0 1 0 -5 0z" fill="black"></path><path d="M327.5 430 a2.5 2.5 0 1 0 5 0 a2.5 2.5 0 1 0 -5 0zM287.5 410 a2.5 2.5 0 1 0 5 0 a2.5 2.5 0 1 0 -5 0z" fill="black"></path><path d="M267.5 430 a2.5 2.5 0 1 0 5 0 a2.5 2.5 0 1 0 -5 0zM167.5 450 a2.5 2.5 0 1 0 5 0 a2.5 2.5 0 1 0 -5 0z" fill="black"></path><path d="M1247.5 230 a2.5 2.5 0 1 0 5 0 a2.5 2.5 0 1 0 -5 0zM1347.5 110 a2.5 2.5 0 1 0 5 0 a2.5 2.5 0 1 0 -5 0z" fill="black"></path><path d="M767.5 550 a2.5 2.5 0 1 0 5 0 a2.5 2.5 0 1 0 -5 0zM507.5 650 a2.5 2.5 0 1 0 5 0 a2.5 2.5 0 1 0 -5 0z" fill="black"></path><path d="M1067.5 170 a2.5 2.5 0 1 0 5 0 a2.5 2.5 0 1 0 -5 0zM967.5 170 a2.5 2.5 0 1 0 5 0 a2.5 2.5 0 1 0 -5 0z" fill="black"></path><path d="M527.5 330 a2.5 2.5 0 1 0 5 0 a2.5 2.5 0 1 0 -5 0zM527.5 290 a2.5 2.5 0 1 0 5 0 a2.5 2.5 0 1 0 -5 0z" fill="black"></path><path d="M207.5 190 a2.5 2.5 0 1 0 5 0 a2.5 2.5 0 1 0 -5 0zM227.5 110 a2.5 2.5 0 1 0 5 0 a2.5 2.5 0 1 0 -5 0z" fill="black"></path><path d="M1067.5 330 a2.5 2.5 0 1 0 5 0 a2.5 2.5 0 1 0 -5 0zM1087.5 230 a2.5 2.5 0 1 0 5 0 a2.5 2.5 0 1 0 -5 0z" fill="black"></path><path d="M1087.5 10 a2.5 2.5 0 1 0 5 0 a2.5 2.5 0 1 0 -5 0zM1187.5 10 a2.5 2.5 0 1 0 5 0 a2.5 2.5 0 1 0 -5 0z" fill="black"></path><path d="M907.5 430 a2.5 2.5 0 1 0 5 0 a2.5 2.5 0 1 0 -5 0zM847.5 430 a2.5 2.5 0 1 0 5 0 a2.5 2.5 0 1 0 -5 0z" fill="black"></path><path d="M787.5 390 a2.5 2.5 0 1 0 5 0 a2.5 2.5 0 1 0 -5 0zM807.5 330 a2.5 2.5 0 1 0 5 0 a2.5 2.5 0 1 0 -5 0z" fill="black"></path><path d="M527.5 350 a2.5 2.5 0 1 0 5 0 a2.5 2.5 0 1 0 -5 0zM547.5 290 a2.5 2.5 0 1 0 5 0 a2.5 2.5 0 1 0 -5 0z" fill="black"></path><path d="M1127.5 550 a2.5 2.5 0 1 0 5 0 a2.5 2.5 0 1 0 -5 0zM1087.5 530 a2.5 2.5 0 1 0 5 0 a2.5 2.5 0 1 0 -5 0z" fill="black"></path><path d="M1287.5 70 a2.5 2.5 0 1 0 5 0 a2.5 2.5 0 1 0 -5 0zM1367.5 70 a2.5 2.5 0 1 0 5 0 a2.5 2.5 0 1 0 -5 0z" fill="black"></path><path d="M907.5 250 a2.5 2.5 0 1 0 5 0 a2.5 2.5 0 1 0 -5 0zM947.5 270 a2.5 2.5 0 1 0 5 0 a2.5 2.5 0 1 0 -5 0z" fill="black"></path><path d="M127.5 30 a2.5 2.5 0 1 0 5 0 a2.5 2.5 0 1 0 -5 0zM207.5 50 a2.5 2.5 0 1 0 5 0 a2.5 2.5 0 1 0 -5 0z" fill="black"></path><path d="M767.5 370 a2.5 2.5 0 1 0 5 0 a2.5 2.5 0 1 0 -5 0zM687.5 430 a2.5 2.5 0 1 0 5 0 a2.5 2.5 0 1 0 -5 0z" fill="black"></path><path d="M807.5 130 a2.5 2.5 0 1 0 5 0 a2.5 2.5 0 1 0 -5 0zM847.5 110 a2.5 2.5 0 1 0 5 0 a2.5 2.5 0 1 0 -5 0z" fill="black"></path><path d="M367.5 550 a2.5 2.5 0 1 0 5 0 a2.5 2.5 0 1 0 -5 0zM427.5 630 a2.5 2.5 0 1 0 5 0 a2.5 2.5 0 1 0 -5 0z" fill="black"></path><path d="M607.5 250 a2.5 2.5 0 1 0 5 0 a2.5 2.5 0 1 0 -5 0zM607.5 150 a2.5 2.5 0 1 0 5 0 a2.5 2.5 0 1 0 -5 0z" fill="black"></path><path d="M887.5 10 a2.5 2.5 0 1 0 5 0 a2.5 2.5 0 1 0 -5 0zM1007.5 10 a2.5 2.5 0 1 0 5 0 a2.5 2.5 0 1 0 -5 0z" fill="black"></path><path d="M67.5 310 a2.5 2.5 0 1 0 5 0 a2.5 2.5 0 1 0 -5 0zM47.5 250 a2.5 2.5 0 1 0 5 0 a2.5 2.5 0 1 0 -5 0z" fill="black"></path><path d="M167.5 350 a2.5 2.5 0 1 0 5 0 a2.5 2.5 0 1 0 -5 0zM167.5 410 a2.5 2.5 0 1 0 5 0 a2.5 2.5 0 1 0 -5 0z" fill="black"></path><path d="M707.5 130 a2.5 2.5 0 1 0 5 0 a2.5 2.5 0 1 0 -5 0zM627.5 110 a2.5 2.5 0 1 0 5 0 a2.5 2.5 0 1 0 -5 0z" fill="black"></path><path d="M1207.5 270 a2.5 2.5 0 1 0 5 0 a2.5 2.5 0 1 0 -5 0zM1227.5 230 a2.5 2.5 0 1 0 5 0 a2.5 2.5 0 1 0 -5 0z" fill="black"></path><path d="M927.5 110 a2.5 2.5 0 1 0 5 0 a2.5 2.5 0 1 0 -5 0zM887.5 90 a2.5 2.5 0 1 0 5 0 a2.5 2.5 0 1 0 -5 0z" fill="black"></path><path d="M187.5 490 a2.5 2.5 0 1 0 5 0 a2.5 2.5 0 1 0 -5 0zM307.5 470 a2.5 2.5 0 1 0 5 0 a2.5 2.5 0 1 0 -5 0z" fill="black"></path><path d="M227.5 590 a2.5 2.5 0 1 0 5 0 a2.5 2.5 0 1 0 -5 0zM267.5 550 a2.5 2.5 0 1 0 5 0 a2.5 2.5 0 1 0 -5 0z" fill="black"></path><path d="M447.5 410 a2.5 2.5 0 1 0 5 0 a2.5 2.5 0 1 0 -5 0zM487.5 570 a2.5 2.5 0 1 0 5 0 a2.5 2.5 0 1 0 -5 0z" fill="black"></path><path d="M327.5 370 a2.5 2.5 0 1 0 5 0 a2.5 2.5 0 1 0 -5 0zM367.5 310 a2.5 2.5 0 1 0 5 0 a2.5 2.5 0 1 0 -5 0z" fill="black"></path><path d="M1207.5 330 a2.5 2.5 0 1 0 5 0 a2.5 2.5 0 1 0 -5 0zM1207.5 390 a2.5 2.5 0 1 0 5 0 a2.5 2.5 0 1 0 -5 0z" fill="black"></path><path d="M1367.5 570 a2.5 2.5 0 1 0 5 0 a2.5 2.5 0 1 0 -5 0zM1407.5 590 a2.5 2.5 0 1 0 5 0 a2.5 2.5 0 1 0 -5 0z" fill="black"></path><path d="M47.5 170 a2.5 2.5 0 1 0 5 0 a2.5 2.5 0 1 0 -5 0zM87.5 210 a2.5 2.5 0 1 0 5 0 a2.5 2.5 0 1 0 -5 0z" fill="black"></path><path d="M647.5 90 a2.5 2.5 0 1 0 5 0 a2.5 2.5 0 1 0 -5 0zM687.5 110 a2.5 2.5 0 1 0 5 0 a2.5 2.5 0 1 0 -5 0z" fill="black"></path><path d="M1127.5 290 a2.5 2.5 0 1 0 5 0 a2.5 2.5 0 1 0 -5 0zM1167.5 370 a2.5 2.5 0 1 0 5 0 a2.5 2.5 0 1 0 -5 0z" fill="black"></path><path d="M1367.5 310 a2.5 2.5 0 1 0 5 0 a2.5 2.5 0 1 0 -5 0zM1287.5 370 a2.5 2.5 0 1 0 5 0 a2.5 2.5 0 1 0 -5 0z" fill="black"></path><path d="M7.5 570 a2.5 2.5 0 1 0 5 0 a2.5 2.5 0 1 0 -5 0zM7.5 470 a2.5 2.5 0 1 0 5 0 a2.5 2.5 0 1 0 -5 0z" fill="black"></path><path d="M307.5 170 a2.5 2.5 0 1 0 5 0 a2.5 2.5 0 1 0 -5 0zM307.5 130 a2.5 2.5 0 1 0 5 0 a2.5 2.5 0 1 0 -5 0z" fill="black"></path><path d="M1087.5 690 a2.5 2.5 0 1 0 5 0 a2.5 2.5 0 1 0 -5 0zM1007.5 690 a2.5 2.5 0 1 0 5 0 a2.5 2.5 0 1 0 -5 0z" fill="black"></path><path d="M1267.5 210 a2.5 2.5 0 1 0 5 0 a2.5 2.5 0 1 0 -5 0zM1387.5 250 a2.5 2.5 0 1 0 5 0 a2.5 2.5 0 1 0 -5 0z" fill="black"></path><path d="M507.5 150 a2.5 2.5 0 1 0 5 0 a2.5 2.5 0 1 0 -5 0zM547.5 210 a2.5 2.5 0 1 0 5 0 a2.5 2.5 0 1 0 -5 0z" fill="black"></path><path d="M1367.5 470 a2.5 2.5 0 1 0 5 0 a2.5 2.5 0 1 0 -5 0zM1367.5 330 a2.5 2.5 0 1 0 5 0 a2.5 2.5 0 1 0 -5 0z" fill="black"></path><path d="M1207.5 30 a2.5 2.5 0 1 0 5 0 a2.5 2.5 0 1 0 -5 0zM1187.5 70 a2.5 2.5 0 1 0 5 0 a2.5 2.5 0 1 0 -5 0z" fill="black"></path><path d="M127.5 430 a2.5 2.5 0 1 0 5 0 a2.5 2.5 0 1 0 -5 0zM127.5 490 a2.5 2.5 0 1 0 5 0 a2.5 2.5 0 1 0 -5 0z" fill="black"></path><path d="M1267.5 630 a2.5 2.5 0 1 0 5 0 a2.5 2.5 0 1 0 -5 0zM1327.5 670 a2.5 2.5 0 1 0 5 0 a2.5 2.5 0 1 0 -5 0z" fill="black"></path><path d="M747.5 30 a2.5 2.5 0 1 0 5 0 a2.5 2.5 0 1 0 -5 0zM827.5 70 a2.5 2.5 0 1 0 5 0 a2.5 2.5 0 1 0 -5 0z" fill="black"></path><path d="M727.5 390 a2.5 2.5 0 1 0 5 0 a2.5 2.5 0 1 0 -5 0zM727.5 310 a2.5 2.5 0 1 0 5 0 a2.5 2.5 0 1 0 -5 0z" fill="black"></path><path d="M447.5 90 a2.5 2.5 0 1 0 5 0 a2.5 2.5 0 1 0 -5 0zM507.5 90 a2.5 2.5 0 1 0 5 0 a2.5 2.5 0 1 0 -5 0z" fill="black"></path><path d="M7.5 630 a2.5 2.5 0 1 0 5 0 a2.5 2.5 0 1 0 -5 0zM87.5 630 a2.5 2.5 0 1 0 5 0 a2.5 2.5 0 1 0 -5 0z" fill="black"></path><path d="M867.5 10 a2.5 2.5 0 1 0 5 0 a2.5 2.5 0 1 0 -5 0zM907.5 50 a2.5 2.5 0 1 0 5 0 a2.5 2.5 0 1 0 -5 0z" fill="black"></path><path d="M247.5 270 a2.5 2.5 0 1 0 5 0 a2.5 2.5 0 1 0 -5 0zM207.5 270 a2.5 2.5 0 1 0 5 0 a2.5 2.5 0 1 0 -5 0z" fill="black"></path><path d="M887.5 230 a2.5 2.5 0 1 0 5 0 a2.5 2.5 0 1 0 -5 0zM847.5 190 a2.5 2.5 0 1 0 5 0 a2.5 2.5 0 1 0 -5 0z" fill="black"></path><path d="M627.5 670 a2.5 2.5 0 1 0 5 0 a2.5 2.5 0 1 0 -5 0zM627.5 630 a2.5 2.5 0 1 0 5 0 a2.5 2.5 0 1 0 -5 0z" fill="black"></path><path d="M407.5 130 a2.5 2.5 0 1 0 5 0 a2.5 2.5 0 1 0 -5 0zM447.5 170 a2.5 2.5 0 1 0 5 0 a2.5 2.5 0 1 0 -5 0z" fill="black"></path><path d="M47.5 670 a2.5 2.5 0 1 0 5 0 a2.5 2.5 0 1 0 -5 0zM7.5 670 a2.5 2.5 0 1 0 5 0 a2.5 2.5 0 1 0 -5 0z" fill="black"></path><path d="M1207.5 490 a2.5 2.5 0 1 0 5 0 a2.5 2.5 0 1 0 -5 0zM1307.5 490 a2.5 2.5 0 1 0 5 0 a2.5 2.5 0 1 0 -5 0z" fill="black"></path><path d="M987.5 590 a2.5 2.5 0 1 0 5 0 a2.5 2.5 0 1 0 -5 0zM1047.5 590 a2.5 2.5 0 1 0 5 0 a2.5 2.5 0 1 0 -5 0z" fill="black"></path><path d="M187.5 650 a2.5 2.5 0 1 0 5 0 a2.5 2.5 0 1 0 -5 0zM187.5 610 a2.5 2.5 0 1 0 5 0 a2.5 2.5 0 1 0 -5 0z" fill="black"></path><path d="M607.5 690 a2.5 2.5 0 1 0 5 0 a2.5 2.5 0 1 0 -5 0zM567.5 690 a2.5 2.5 0 1 0 5 0 a2.5 2.5 0 1 0 -5 0z" fill="black"></path><path d="M407.5 210 a2.5 2.5 0 1 0 5 0 a2.5 2.5 0 1 0 -5 0zM407.5 250 a2.5 2.5 0 1 0 5 0 a2.5 2.5 0 1 0 -5 0z" fill="black"></path><path d="M887.5 570 a2.5 2.5 0 1 0 5 0 a2.5 2.5 0 1 0 -5 0zM967.5 510 a2.5 2.5 0 1 0 5 0 a2.5 2.5 0 1 0 -5 0z" fill="black"></path><path d="M467.5 390 a2.5 2.5 0 1 0 5 0 a2.5 2.5 0 1 0 -5 0zM447.5 350 a2.5 2.5 0 1 0 5 0 a2.5 2.5 0 1 0 -5 0z" fill="black"></path><path d="M847.5 10 a2.5 2.5 0 1 0 5 0 a2.5 2.5 0 1 0 -5 0zM887.5 50 a2.5 2.5 0 1 0 5 0 a2.5 2.5 0 1 0 -5 0z" fill="black"></path><path d="M1407.5 450 a2.5 2.5 0 1 0 5 0 a2.5 2.5 0 1 0 -5 0zM1407.5 410 a2.5 2.5 0 1 0 5 0 a2.5 2.5 0 1 0 -5 0z" fill="black"></path><path d="M227.5 510 a2.5 2.5 0 1 0 5 0 a2.5 2.5 0 1 0 -5 0zM227.5 570 a2.5 2.5 0 1 0 5 0 a2.5 2.5 0 1 0 -5 0z" fill="black"></path><path d="M947.5 210 a2.5 2.5 0 1 0 5 0 a2.5 2.5 0 1 0 -5 0zM947.5 250 a2.5 2.5 0 1 0 5 0 a2.5 2.5 0 1 0 -5 0z" fill="black"></path><path d="M827.5 550 a2.5 2.5 0 1 0 5 0 a2.5 2.5 0 1 0 -5 0zM707.5 670 a2.5 2.5 0 1 0 5 0 a2.5 2.5 0 1 0 -5 0z" fill="black"></path><path d="M567.5 470 a2.5 2.5 0 1 0 5 0 a2.5 2.5 0 1 0 -5 0zM587.5 530 a2.5 2.5 0 1 0 5 0 a2.5 2.5 0 1 0 -5 0z" fill="black"></path><path d="M847.5 510 a2.5 2.5 0 1 0 5 0 a2.5 2.5 0 1 0 -5 0zM807.5 530 a2.5 2.5 0 1 0 5 0 a2.5 2.5 0 1 0 -5 0z" fill="black"></path><path d="M127.5 410 a2.5 2.5 0 1 0 5 0 a2.5 2.5 0 1 0 -5 0zM67.5 270 a2.5 2.5 0 1 0 5 0 a2.5 2.5 0 1 0 -5 0z" fill="black"></path><path d="M227.5 430 a2.5 2.5 0 1 0 5 0 a2.5 2.5 0 1 0 -5 0zM187.5 370 a2.5 2.5 0 1 0 5 0 a2.5 2.5 0 1 0 -5 0z" fill="black"></path><path d="M247.5 210 a2.5 2.5 0 1 0 5 0 a2.5 2.5 0 1 0 -5 0zM307.5 230 a2.5 2.5 0 1 0 5 0 a2.5 2.5 0 1 0 -5 0z" fill="black"></path><path d="M967.5 370 a2.5 2.5 0 1 0 5 0 a2.5 2.5 0 1 0 -5 0zM987.5 430 a2.5 2.5 0 1 0 5 0 a2.5 2.5 0 1 0 -5 0z" fill="black"></path><path d="M1087.5 350 a2.5 2.5 0 1 0 5 0 a2.5 2.5 0 1 0 -5 0zM1027.5 330 a2.5 2.5 0 1 0 5 0 a2.5 2.5 0 1 0 -5 0z" fill="black"></path><path d="M1407.5 690 a2.5 2.5 0 1 0 5 0 a2.5 2.5 0 1 0 -5 0zM1427.5 650 a2.5 2.5 0 1 0 5 0 a2.5 2.5 0 1 0 -5 0z" fill="black"></path><path d="M887.5 690 a2.5 2.5 0 1 0 5 0 a2.5 2.5 0 1 0 -5 0zM967.5 650 a2.5 2.5 0 1 0 5 0 a2.5 2.5 0 1 0 -5 0z" fill="black"></path><path d="M1267.5 510 a2.5 2.5 0 1 0 5 0 a2.5 2.5 0 1 0 -5 0zM1307.5 530 a2.5 2.5 0 1 0 5 0 a2.5 2.5 0 1 0 -5 0z" fill="black"></path><path d="M1407.5 170 a2.5 2.5 0 1 0 5 0 a2.5 2.5 0 1 0 -5 0zM1407.5 130 a2.5 2.5 0 1 0 5 0 a2.5 2.5 0 1 0 -5 0z" fill="black"></path><path d="M1247.5 10 a2.5 2.5 0 1 0 5 0 a2.5 2.5 0 1 0 -5 0zM1207.5 50 a2.5 2.5 0 1 0 5 0 a2.5 2.5 0 1 0 -5 0z" fill="black"></path><path d="M687.5 410 a2.5 2.5 0 1 0 5 0 a2.5 2.5 0 1 0 -5 0zM707.5 330 a2.5 2.5 0 1 0 5 0 a2.5 2.5 0 1 0 -5 0z" fill="black"></path><path d="M507.5 50 a2.5 2.5 0 1 0 5 0 a2.5 2.5 0 1 0 -5 0zM447.5 50 a2.5 2.5 0 1 0 5 0 a2.5 2.5 0 1 0 -5 0z" fill="black"></path><path d="M1047.5 250 a2.5 2.5 0 1 0 5 0 a2.5 2.5 0 1 0 -5 0zM1087.5 250 a2.5 2.5 0 1 0 5 0 a2.5 2.5 0 1 0 -5 0z" fill="black"></path><path d="M467.5 470 a2.5 2.5 0 1 0 5 0 a2.5 2.5 0 1 0 -5 0zM527.5 450 a2.5 2.5 0 1 0 5 0 a2.5 2.5 0 1 0 -5 0z" fill="black"></path><path d="M707.5 230 a2.5 2.5 0 1 0 5 0 a2.5 2.5 0 1 0 -5 0zM707.5 190 a2.5 2.5 0 1 0 5 0 a2.5 2.5 0 1 0 -5 0z" fill="black"></path><path d="M847.5 330 a2.5 2.5 0 1 0 5 0 a2.5 2.5 0 1 0 -5 0zM807.5 290 a2.5 2.5 0 1 0 5 0 a2.5 2.5 0 1 0 -5 0z" fill="black"></path><path d="M367.5 210 a2.5 2.5 0 1 0 5 0 a2.5 2.5 0 1 0 -5 0zM407.5 190 a2.5 2.5 0 1 0 5 0 a2.5 2.5 0 1 0 -5 0z" fill="black"></path><path d="M727.5 510 a2.5 2.5 0 1 0 5 0 a2.5 2.5 0 1 0 -5 0zM667.5 550 a2.5 2.5 0 1 0 5 0 a2.5 2.5 0 1 0 -5 0z" fill="black"></path><path d="M1267.5 470 a2.5 2.5 0 1 0 5 0 a2.5 2.5 0 1 0 -5 0zM1227.5 470 a2.5 2.5 0 1 0 5 0 a2.5 2.5 0 1 0 -5 0z" fill="black"></path><path d="M327.5 350 a2.5 2.5 0 1 0 5 0 a2.5 2.5 0 1 0 -5 0zM327.5 310 a2.5 2.5 0 1 0 5 0 a2.5 2.5 0 1 0 -5 0z" fill="black"></path><path d="M667.5 310 a2.5 2.5 0 1 0 5 0 a2.5 2.5 0 1 0 -5 0zM687.5 210 a2.5 2.5 0 1 0 5 0 a2.5 2.5 0 1 0 -5 0z" fill="black"></path><path d="M807.5 450 a2.5 2.5 0 1 0 5 0 a2.5 2.5 0 1 0 -5 0zM767.5 430 a2.5 2.5 0 1 0 5 0 a2.5 2.5 0 1 0 -5 0z" fill="black"></path><path d="M927.5 90 a2.5 2.5 0 1 0 5 0 a2.5 2.5 0 1 0 -5 0zM987.5 110 a2.5 2.5 0 1 0 5 0 a2.5 2.5 0 1 0 -5 0z" fill="black"></path><path d="M287.5 230 a2.5 2.5 0 1 0 5 0 a2.5 2.5 0 1 0 -5 0zM207.5 210 a2.5 2.5 0 1 0 5 0 a2.5 2.5 0 1 0 -5 0z" fill="black"></path><path d="M327.5 30 a2.5 2.5 0 1 0 5 0 a2.5 2.5 0 1 0 -5 0zM247.5 10 a2.5 2.5 0 1 0 5 0 a2.5 2.5 0 1 0 -5 0z" fill="black"></path><path d="M67.5 550 a2.5 2.5 0 1 0 5 0 a2.5 2.5 0 1 0 -5 0zM87.5 610 a2.5 2.5 0 1 0 5 0 a2.5 2.5 0 1 0 -5 0z" fill="black"></path><path d="M87.5 330 a2.5 2.5 0 1 0 5 0 a2.5 2.5 0 1 0 -5 0zM87.5 390 a2.5 2.5 0 1 0 5 0 a2.5 2.5 0 1 0 -5 0z" fill="black"></path><path d="M87.5 150 a2.5 2.5 0 1 0 5 0 a2.5 2.5 0 1 0 -5 0zM127.5 130 a2.5 2.5 0 1 0 5 0 a2.5 2.5 0 1 0 -5 0z" fill="black"></path><path d="M1387.5 550 a2.5 2.5 0 1 0 5 0 a2.5 2.5 0 1 0 -5 0zM1387.5 510 a2.5 2.5 0 1 0 5 0 a2.5 2.5 0 1 0 -5 0z" fill="black"></path><path d="M1107.5 10 a2.5 2.5 0 1 0 5 0 a2.5 2.5 0 1 0 -5 0zM1167.5 10 a2.5 2.5 0 1 0 5 0 a2.5 2.5 0 1 0 -5 0z" fill="black"></path><path d="M547.5 90 a2.5 2.5 0 1 0 5 0 a2.5 2.5 0 1 0 -5 0zM567.5 50 a2.5 2.5 0 1 0 5 0 a2.5 2.5 0 1 0 -5 0z" fill="black"></path><path d="M1107.5 90 a2.5 2.5 0 1 0 5 0 a2.5 2.5 0 1 0 -5 0zM1147.5 90 a2.5 2.5 0 1 0 5 0 a2.5 2.5 0 1 0 -5 0z" fill="black"></path><path d="M807.5 510 a2.5 2.5 0 1 0 5 0 a2.5 2.5 0 1 0 -5 0zM767.5 490 a2.5 2.5 0 1 0 5 0 a2.5 2.5 0 1 0 -5 0z" fill="black"></path><path d="M47.5 530 a2.5 2.5 0 1 0 5 0 a2.5 2.5 0 1 0 -5 0zM47.5 570 a2.5 2.5 0 1 0 5 0 a2.5 2.5 0 1 0 -5 0z" fill="black"></path><path d="M487.5 170 a2.5 2.5 0 1 0 5 0 a2.5 2.5 0 1 0 -5 0zM527.5 210 a2.5 2.5 0 1 0 5 0 a2.5 2.5 0 1 0 -5 0z" fill="black"></path><path d="M427.5 130 a2.5 2.5 0 1 0 5 0 a2.5 2.5 0 1 0 -5 0zM487.5 110 a2.5 2.5 0 1 0 5 0 a2.5 2.5 0 1 0 -5 0z" fill="black"></path><path d="M1387.5 170 a2.5 2.5 0 1 0 5 0 a2.5 2.5 0 1 0 -5 0zM1387.5 130 a2.5 2.5 0 1 0 5 0 a2.5 2.5 0 1 0 -5 0z" fill="black"></path><path d="M567.5 650 a2.5 2.5 0 1 0 5 0 a2.5 2.5 0 1 0 -5 0zM527.5 650 a2.5 2.5 0 1 0 5 0 a2.5 2.5 0 1 0 -5 0z" fill="black"></path><path d="M1067.5 450 a2.5 2.5 0 1 0 5 0 a2.5 2.5 0 1 0 -5 0zM1127.5 450 a2.5 2.5 0 1 0 5 0 a2.5 2.5 0 1 0 -5 0z" fill="black"></path><path d="M347.5 530 a2.5 2.5 0 1 0 5 0 a2.5 2.5 0 1 0 -5 0zM407.5 630 a2.5 2.5 0 1 0 5 0 a2.5 2.5 0 1 0 -5 0z" fill="black"></path><path d="M887.5 210 a2.5 2.5 0 1 0 5 0 a2.5 2.5 0 1 0 -5 0zM927.5 250 a2.5 2.5 0 1 0 5 0 a2.5 2.5 0 1 0 -5 0z" fill="black"></path><path d="M467.5 490 a2.5 2.5 0 1 0 5 0 a2.5 2.5 0 1 0 -5 0zM527.5 530 a2.5 2.5 0 1 0 5 0 a2.5 2.5 0 1 0 -5 0z" fill="black"></path><path d="M1107.5 350 a2.5 2.5 0 1 0 5 0 a2.5 2.5 0 1 0 -5 0zM1047.5 270 a2.5 2.5 0 1 0 5 0 a2.5 2.5 0 1 0 -5 0z" fill="black"></path><path d="M467.5 410 a2.5 2.5 0 1 0 5 0 a2.5 2.5 0 1 0 -5 0zM467.5 450 a2.5 2.5 0 1 0 5 0 a2.5 2.5 0 1 0 -5 0z" fill="black"></path><path d="M47.5 610 a2.5 2.5 0 1 0 5 0 a2.5 2.5 0 1 0 -5 0zM7.5 610 a2.5 2.5 0 1 0 5 0 a2.5 2.5 0 1 0 -5 0z" fill="black"></path><path d="M1367.5 250 a2.5 2.5 0 1 0 5 0 a2.5 2.5 0 1 0 -5 0zM1227.5 290 a2.5 2.5 0 1 0 5 0 a2.5 2.5 0 1 0 -5 0z" fill="black"></path><path d="M827.5 650 a2.5 2.5 0 1 0 5 0 a2.5 2.5 0 1 0 -5 0zM787.5 670 a2.5 2.5 0 1 0 5 0 a2.5 2.5 0 1 0 -5 0z" fill="black"></path><path d="M127.5 250 a2.5 2.5 0 1 0 5 0 a2.5 2.5 0 1 0 -5 0zM167.5 250 a2.5 2.5 0 1 0 5 0 a2.5 2.5 0 1 0 -5 0z" fill="black"></path><path d="M1027.5 610 a2.5 2.5 0 1 0 5 0 a2.5 2.5 0 1 0 -5 0zM987.5 610 a2.5 2.5 0 1 0 5 0 a2.5 2.5 0 1 0 -5 0z" fill="black"></path><path d="M467.5 530 a2.5 2.5 0 1 0 5 0 a2.5 2.5 0 1 0 -5 0zM507.5 510 a2.5 2.5 0 1 0 5 0 a2.5 2.5 0 1 0 -5 0z" fill="black"></path><path d="M847.5 570 a2.5 2.5 0 1 0 5 0 a2.5 2.5 0 1 0 -5 0zM827.5 610 a2.5 2.5 0 1 0 5 0 a2.5 2.5 0 1 0 -5 0z" fill="black"></path><path d="M407.5 310 a2.5 2.5 0 1 0 5 0 a2.5 2.5 0 1 0 -5 0zM407.5 350 a2.5 2.5 0 1 0 5 0 a2.5 2.5 0 1 0 -5 0z" fill="black"></path><path d="M1087.5 650 a2.5 2.5 0 1 0 5 0 a2.5 2.5 0 1 0 -5 0zM1147.5 650 a2.5 2.5 0 1 0 5 0 a2.5 2.5 0 1 0 -5 0z" fill="black"></path></mask></defs></svg>